<svg xmlns:mydata="http://www.w3.org/2000/svg" mydata:contrastcolor="ffffff" mydata:template="Default" mydata:presentation="2.5" mydata:layouttype="undefined" mydata:specialfontid="undefined" mydata:id1="934" mydata:id2="140" mydata:companyname="control.br" mydata:companytagline="" version="1.1" xmlns="http://www.w3.org/2000/svg" xmlns:xlink="http://www.w3.org/1999/xlink" viewBox="65.00000000000001 219.5079818287664 420 30.98403634246725" class="watermark-logo"><g fill="#2d2926" fill-rule="none" stroke="none" stroke-width="1" stroke-linecap="butt" stroke-linejoin="miter" stroke-miterlimit="10" stroke-dasharray="" stroke-dashoffset="0" font-family="none" font-weight="none" font-size="none" text-anchor="none" style="mix-blend-mode: normal"><g data-paper-data="{&quot;isGlobalGroup&quot;:true,&quot;bounds&quot;:{&quot;x&quot;:65.00000000000001,&quot;y&quot;:219.5079818287664,&quot;width&quot;:420,&quot;height&quot;:30.98403634246725}}"><g data-paper-data="{&quot;isPrimaryText&quot;:true}"><path d="M123.5845,220.24537c-5.38429,0 -8.22253,2.67128 -8.22253,8.05557v13.39813c0,5.38429 3.00519,8.05557 8.22253,8.05557h20.74414c4.34083,0 7.2208,-1.87824 7.88862,-6.21907c0,-0.12522 -0.08348,-0.16695 -0.20869,-0.16695h-27.38059c-1.04347,0 -1.58607,-0.25043 -1.87824,-0.5426c-0.29217,-0.20869 -0.45913,-0.7513 -0.45913,-1.54433v-12.60509c0,-0.79304 0.16695,-1.33564 0.45913,-1.54433c0.29217,-0.29217 0.83477,-0.50086 1.87824,-0.50086h27.38059c0.20869,0 0.25043,-0.08348 0.16695,-0.20869c-0.66782,-4.34083 -3.50605,-6.17733 -7.84688,-6.17733z" data-paper-data="{&quot;glyphName&quot;:&quot;c&quot;,&quot;glyphIndex&quot;:0,&quot;firstGlyphOfWord&quot;:true,&quot;word&quot;:1}" fill-rule="nonzero" style="fill: rgb(255, 255, 255);"></path><path d="M157.30938,241.69906c0,5.38429 3.00519,8.05557 8.22253,8.05557h20.53545c5.21734,0 8.18079,-2.83823 8.18079,-8.05557v-13.39813c0,-5.38429 -2.96345,-8.05557 -8.18079,-8.05557h-20.53545c-5.38429,0 -8.22253,2.67128 -8.22253,8.05557zM164.23801,228.67659c0,-0.79304 0.16695,-1.33564 0.45913,-1.54433c0.29217,-0.29217 0.83477,-0.50086 1.87824,-0.50086h18.44851c1.62781,0 2.29563,0.37565 2.29563,2.0452v12.60509c0,0.95999 -0.20869,1.2939 -0.41739,1.58607c-0.29217,0.29217 -0.83477,0.50086 -1.87824,0.50086h-18.44851c-1.04347,0 -1.58607,-0.25043 -1.87824,-0.5426c-0.29217,-0.20869 -0.45913,-0.7513 -0.45913,-1.54433z" data-paper-data="{&quot;glyphName&quot;:&quot;o&quot;,&quot;glyphIndex&quot;:1,&quot;word&quot;:1}" fill-rule="nonzero" style="fill: rgb(255, 255, 255);"></path><path d="M200.8846,220.37058c-0.95999,0 -1.62781,0.66782 -1.62781,1.62781v25.96148c0,0.95999 0.66782,1.62781 1.62781,1.62781h3.67301c0.37565,0 0.83477,-0.08348 1.16868,-0.45913c0.37565,-0.37565 0.45913,-0.83477 0.45913,-1.16868v-18.90764l21.16153,19.82589l0.08348,0.08348c0.29217,0.20869 0.66782,0.62608 1.46085,0.62608h4.54952c0.37565,0 0.87651,-0.08348 1.21042,-0.45913c0.37565,-0.33391 0.45913,-0.79304 0.45913,-1.16868v-25.96148c0,-0.95999 -0.70956,-1.62781 -1.66955,-1.62781h-3.67301c-0.95999,0 -1.62781,0.66782 -1.62781,1.62781v18.90764l-21.11979,-19.82589c-0.04174,-0.04174 -0.04174,-0.04174 -0.08348,-0.04174c-0.29217,-0.29217 -0.66782,-0.66782 -1.46085,-0.66782z" data-paper-data="{&quot;glyphName&quot;:&quot;n&quot;,&quot;glyphIndex&quot;:2,&quot;word&quot;:1}" fill-rule="nonzero" style="fill: rgb(255, 255, 255);"></path><path d="M272.5917,219.67494h-32.93184c-0.67199,0 -1.22723,0.21922 -1.66572,0.65766c-0.43849,0.43844 -0.65773,0.99371 -0.65773,1.66579v3.1304c0,0.69298 0.22098,1.26042 0.66295,1.70231c0.00951,0.00965 0.01936,0.01899 0.02956,0.02803c0.44498,0.3954 0.98863,0.59311 1.63094,0.59311h12.36857v20.50762c0,0.65807 0.21623,1.20687 0.64869,1.64642c0.40927,0.45136 0.96753,0.67703 1.67477,0.67703h3.58953c0.70724,0 1.26549,-0.22574 1.67477,-0.67722c0.43246,-0.43953 0.64869,-0.98827 0.64869,-1.64623v-20.50762h12.32683c0.67292,0 1.2306,-0.20963 1.67303,-0.6289c0.46144,-0.43705 0.69217,-1.0019 0.69217,-1.69456v-3.1304c0,-0.54469 -0.20185,-1.07662 -0.60556,-1.59578c-0.0262,-0.0336 -0.05519,-0.06454 -0.08696,-0.09283c-0.47629,-0.42323 -1.03384,-0.63485 -1.67268,-0.63485zM238.72769,221.99839c0,-0.62144 0.31072,-0.93216 0.93216,-0.93216h32.93184c0.26574,0 0.49959,0.08133 0.70156,0.244c0.18156,0.24744 0.27235,0.47683 0.27235,0.68817v3.1304c0,0.62144 -0.32463,0.93216 -0.9739,0.93216h-13.02248c-0.02272,0 -0.04545,0.00111 -0.06817,0.00334c-0.02272,0.00225 -0.04522,0.00559 -0.06748,0.01002c-0.02249,0.00445 -0.04464,0.00998 -0.06643,0.01659c-0.0218,0.00661 -0.04313,0.01427 -0.064,0.02299c-0.0211,0.00872 -0.04174,0.01846 -0.06191,0.02922c-0.01994,0.01074 -0.03942,0.02243 -0.05843,0.0351c-0.01901,0.01264 -0.03733,0.02619 -0.05496,0.04066c-0.01762,0.01445 -0.03443,0.02973 -0.05043,0.04584c-0.01623,0.01612 -0.03154,0.03297 -0.04591,0.05057c-0.01438,0.01762 -0.02794,0.03591 -0.0407,0.05485c-0.01275,0.01894 -0.02446,0.03846 -0.03513,0.05854c-0.01067,0.0201 -0.02041,0.04067 -0.02922,0.0617c-0.00858,0.02105 -0.01623,0.04248 -0.02296,0.06428c-0.00649,0.02182 -0.01206,0.0439 -0.0167,0.06623c-0.00441,0.02235 -0.00765,0.04487 -0.00974,0.06755c-0.00232,0.02265 -0.00348,0.04538 -0.00348,0.06817v21.20327c0,0.28094 -0.0851,0.50654 -0.2553,0.67679c-0.00974,0.00963 -0.01913,0.01954 -0.02817,0.02972c-0.13356,0.15043 -0.34979,0.22565 -0.64869,0.22565h-3.58953c-0.2989,0 -0.51513,-0.07521 -0.64869,-0.22564c-0.00904,-0.01019 -0.01843,-0.0201 -0.02817,-0.02974c-0.1702,-0.17025 -0.2553,-0.39585 -0.2553,-0.67679v-21.20327c0,-0.02279 -0.00116,-0.04552 -0.00348,-0.06817c-0.00209,-0.02268 -0.00533,-0.04519 -0.00974,-0.06755c-0.00464,-0.02233 -0.0102,-0.04441 -0.0167,-0.06623c-0.00672,-0.0218 -0.01438,-0.04322 -0.02296,-0.06428c-0.00881,-0.02103 -0.01855,-0.0416 -0.02922,-0.0617c-0.01067,-0.02008 -0.02238,-0.03959 -0.03513,-0.05854c-0.01275,-0.01894 -0.02632,-0.03723 -0.0407,-0.05485c-0.01438,-0.0176 -0.02968,-0.03446 -0.04591,-0.05057c-0.016,-0.01612 -0.03281,-0.0314 -0.05043,-0.04584c-0.01762,-0.01447 -0.03594,-0.02802 -0.05496,-0.04066c-0.01901,-0.01266 -0.03849,-0.02436 -0.05843,-0.0351c-0.02017,-0.01076 -0.04081,-0.0205 -0.06191,-0.02922c-0.02087,-0.00872 -0.0422,-0.01638 -0.064,-0.02299c-0.0218,-0.00661 -0.04394,-0.01214 -0.06643,-0.01659c-0.02226,-0.00443 -0.04475,-0.00777 -0.06748,-0.01002c-0.02272,-0.00223 -0.04545,-0.00334 -0.06817,-0.00334h-13.06422c-0.2815,0 -0.51176,-0.07601 -0.69078,-0.22803c-0.16093,-0.16927 -0.24139,-0.40398 -0.24139,-0.70413z" data-paper-data="{&quot;glyphName&quot;:&quot;t&quot;,&quot;glyphIndex&quot;:3,&quot;fontStyleEffect&quot;:true,&quot;word&quot;:1}" fill-rule="evenodd" style="fill: rgb(255, 255, 255);"></path><path d="M303.81226,219.67494h-25.00149c-0.67199,0 -1.22723,0.21922 -1.66572,0.65766c-0.43849,0.43844 -0.65773,0.99371 -0.65773,1.66579v4.59126c0,0.57507 0.28753,0.8626 0.8626,0.8626h25.41887c0.68359,0 1.06526,0.05593 1.14503,0.16779c0.02249,0.03126 0.0473,0.06046 0.07443,0.08762c0.14238,0.1424 0.21356,0.52103 0.21356,1.13588v4.92517c0,0.63371 -0.07548,1.0236 -0.22643,1.16966c-0.15258,0.14776 -0.55478,0.22163 -1.2066,0.22163h-15.10941c-0.3833,0 -0.65182,0.16897 -0.80556,0.50692c-0.16348,0.35956 -0.10064,0.68382 0.18852,0.97279l9.22112,8.8925l4.49769,4.37127c0.11084,0.25323 0.36266,0.37985 0.75547,0.37985h9.47469c0.34365,0 0.59941,-0.15389 0.7673,-0.46167c0.20406,-0.3744 0.15397,-0.71374 -0.15026,-1.01803c-0.82156,-0.82164 -2.88472,-2.80364 -6.1895,-5.946c-0.07003,-0.06657 -0.13669,-0.12995 -0.2,-0.19012c2.3165,-0.36565 4.04332,-1.08504 5.18047,-2.15817c1.44277,-1.3617 2.16415,-3.45554 2.16415,-6.2815v-5.80168c0,-2.80071 -0.75837,-4.95944 -2.27511,-6.47618c-1.51674,-1.51669 -3.67544,-2.27504 -6.47611,-2.27504zM277.8786,221.99839c0,-0.62144 0.31072,-0.93216 0.93216,-0.93216h25.00149c4.90662,0 7.35993,2.45331 7.35993,7.35993v5.80168c0,2.42597 -0.57599,4.18253 -1.72798,5.26969c-1.07547,1.01504 -2.8838,1.65638 -5.42499,1.92402c-0.36034,0.01241 -0.61437,0.18113 -0.76208,0.50619c-0.16324,0.35953 -0.1004,0.6838 0.18852,0.97279c0.00394,0.00399 0.008,0.00794 0.01217,0.01186c0.17994,0.1715 0.51397,0.48934 1.00208,0.95352c2.42015,2.30125 4.17086,3.97663 5.25212,5.02614h-7.9954l-4.48761,-4.36131l-8.27435,-7.97943h13.81412c1.027,0 1.75175,-0.20438 2.17424,-0.61314c0.43339,-0.41943 0.65008,-1.14257 0.65008,-2.16944v-4.92517c0,-0.96827 -0.19443,-1.66179 -0.5833,-2.08057c-0.37124,-0.46801 -1.11825,-0.70201 -2.24102,-0.70201h-24.89018zM301.84845,249.01997l0.02783,0.0271c0.03339,0.03241 0.06319,0.06782 0.08939,0.10621c0.0262,0.03839 0.04835,0.07901 0.06643,0.12186c0.01809,0.04284 0.03177,0.08706 0.04104,0.13264c0.00928,0.04559 0.01391,0.09163 0.01391,0.13815c0,-0.23802 -0.07954,-0.41335 -0.23861,-0.52597z" data-paper-data="{&quot;glyphName&quot;:&quot;r&quot;,&quot;glyphIndex&quot;:4,&quot;fontStyleEffect&quot;:true,&quot;word&quot;:1}" fill-rule="evenodd" style="fill: rgb(255, 255, 255);"></path><path d="M316.18083,228.30094v13.39813c0,2.85718 0.78991,5.04047 2.36972,6.54988c1.53622,1.46756 3.71904,2.20133 6.54846,2.20133h20.53545c2.80762,0 4.98534,-0.75649 6.53315,-2.26948c1.56219,-1.52708 2.34328,-3.68766 2.34328,-6.48174v-13.39813c0,-2.85922 -0.78237,-5.04191 -2.34711,-6.54807c-1.52578,-1.46876 -3.70222,-2.20314 -6.52933,-2.20314h-20.53545c-5.94545,0 -8.91817,2.91707 -8.91817,8.75122zM325.099,249.05899c-5.01792,0 -7.52688,-2.45331 -7.52688,-7.35993v-13.39813c0,-4.90662 2.50896,-7.35993 7.52688,-7.35993h20.53545c4.99009,0 7.48514,2.45331 7.48514,7.35993v13.39813c0,4.90662 -2.49505,7.35993 -7.48514,7.35993zM323.81136,226.60252c-0.46794,0.36763 -0.70191,1.05898 -0.70191,2.07407v12.60509c0,1.01448 0.23374,1.70561 0.70121,2.07337c0.49924,0.47281 1.27651,0.70921 2.3318,0.70921h18.44851c1.11025,0 1.90027,-0.23487 2.37006,-0.70462c0.02713,-0.02713 0.05194,-0.05632 0.07443,-0.08758c0.36452,-0.51049 0.54678,-1.17395 0.54678,-1.99038v-12.60509c0,-1.82723 -0.99709,-2.74084 -2.99127,-2.74084h-18.44851c-1.08011,0 -1.85714,0.22226 -2.33111,0.66678zM324.50074,241.28168v-12.60509c0,-0.57226 0.05588,-0.89836 0.16765,-0.97829c0.0313,-0.02228 0.06052,-0.047 0.08765,-0.07416c0.19803,-0.19807 0.66017,-0.29711 1.38642,-0.29711h18.44851c0.68312,0 1.12254,0.07987 1.31825,0.23961c0.18782,0.15348 0.28174,0.52346 0.28174,1.10994v12.60509c0,0.48614 -0.08406,0.86245 -0.25217,1.12893c-0.21611,0.17491 -0.66538,0.26236 -1.34781,0.26236h-18.44851c-0.69843,0 -1.16057,-0.11295 -1.38642,-0.33885c-0.02713,-0.02715 -0.05623,-0.05187 -0.0873,-0.07416c-0.112,-0.07993 -0.168,-0.40602 -0.168,-0.97829z" data-paper-data="{&quot;glyphName&quot;:&quot;o&quot;,&quot;glyphIndex&quot;:5,&quot;fontStyleEffect&quot;:true,&quot;word&quot;:1}" fill-rule="evenodd" style="fill: rgb(255, 255, 255);"></path><path d="M358.12823,221.99839v19.53372c0,2.80074 0.75837,4.95947 2.27511,6.47619c1.51651,1.51669 3.67521,2.27503 6.47611,2.27503h25.58583c0.66504,0 1.21854,-0.22096 1.66051,-0.66287c0.00974,-0.00964 0.01913,-0.01955 0.02817,-0.02973c0.42318,-0.47613 0.63478,-1.01974 0.63478,-1.63085v-3.1304c0,-0.67211 -0.21924,-1.22737 -0.65773,-1.66579c-0.43849,-0.43844 -0.99373,-0.65766 -1.66572,-0.65766h-24.5841c-0.53634,0 -0.93935,-0.0835 -1.20903,-0.2505c-0.12151,-0.16494 -0.18226,-0.53129 -0.18226,-1.09905v-19.15807c0,-0.65792 -0.21623,-1.20665 -0.64869,-1.64621c-0.40927,-0.4515 -0.96753,-0.67725 -1.67477,-0.67725h-3.67301c-0.63883,0 -1.19639,0.21162 -1.67268,0.63485c-0.03177,0.02829 -0.06075,0.05923 -0.08696,0.09283c-0.40371,0.51916 -0.60556,1.05109 -0.60556,1.59578zM366.87945,248.89203c-4.90662,0 -7.35993,-2.45331 -7.35993,-7.35993v-19.53372c0,-0.21131 0.09078,-0.44069 0.27235,-0.68813c0.20197,-0.16269 0.43582,-0.24403 0.70156,-0.24403h3.67301c0.2989,0 0.51513,0.07521 0.64869,0.22563c0.00904,0.0102 0.01843,0.02012 0.02817,0.02974c0.1702,0.17025 0.2553,0.39585 0.2553,0.67679v19.15807c0,0.99906 0.20707,1.70564 0.62121,2.11974c0.02713,0.02713 0.05623,0.05184 0.0873,0.07412c0.5106,0.36466 1.20196,0.54699 2.07407,0.54699h24.5841c0.62144,0 0.93216,0.31072 0.93216,0.93216v3.1304c0,0.25197 -0.08974,0.48212 -0.26921,0.69048c-0.16858,0.16113 -0.38956,0.24169 -0.66295,0.24169z" data-paper-data="{&quot;glyphName&quot;:&quot;l&quot;,&quot;glyphIndex&quot;:6,&quot;fontStyleEffect&quot;:true,&quot;word&quot;:1}" fill-rule="evenodd" style="fill: rgb(255, 255, 255);"></path><path d="M401.89823,242.42253h-3.29736c-0.67199,0 -1.22028,0.21226 -1.64485,0.63679c-0.42458,0.42453 -0.63686,0.97284 -0.63686,1.64492v3.29736c0,0.67228 0.22075,1.21209 0.66225,1.61941c0.40742,0.44154 0.94724,0.6623 1.61946,0.6623h3.29736c0.67223,0 1.21205,-0.22077 1.61946,-0.66232c0.4415,-0.40735 0.66225,-0.94715 0.66225,-1.6194v-3.29736c0,-0.67211 -0.21229,-1.22042 -0.63686,-1.64492c-0.42458,-0.42453 -0.97286,-0.63679 -1.64485,-0.63679zM397.71044,244.70425c0,-0.59362 0.29681,-0.89043 0.89043,-0.89043h3.29736c0.59362,0 0.89043,0.29681 0.89043,0.89043v3.29736c0,0.27096 -0.07525,0.4733 -0.22574,0.60701c-0.02041,0.01813 -0.03965,0.03739 -0.05774,0.05778c-0.13356,0.15042 -0.33588,0.22563 -0.60695,0.22563h-3.29736c-0.27084,0 -0.47315,-0.07521 -0.60695,-0.22563c-0.01809,-0.02039 -0.03733,-0.03966 -0.05774,-0.05778c-0.15049,-0.13372 -0.22574,-0.33605 -0.22574,-0.60701z" data-paper-data="{&quot;glyphName&quot;:&quot;.&quot;,&quot;glyphIndex&quot;:7,&quot;fontStyleEffect&quot;:true,&quot;word&quot;:1}" fill-rule="evenodd" style="fill: rgb(255, 255, 255);"></path><path d="M407.7973,230.76352v6.21907c0,0.57507 0.28753,0.8626 0.8626,0.8626h28.38232c0.78121,0 1.2917,0.12301 1.53146,0.36904c0.24046,0.24675 0.36069,0.76836 0.36069,1.56485v1.2939c0,0.73694 -0.12127,1.21004 -0.36382,1.41929c-0.23652,0.20394 -0.74596,0.30591 -1.52833,0.30591h-28.38232c-0.57507,0 -0.8626,0.28753 -0.8626,0.8626v5.96864c0,0.57507 0.28753,0.8626 0.8626,0.8626h28.67449c3.08843,0 5.46452,-0.78109 7.12828,-2.34328c1.72195,-1.61686 2.58293,-3.97545 2.58293,-7.07575v-1.2939c0,-2.75399 -0.83048,-4.85137 -2.49145,-6.29215c1.0488,-1.23943 1.5732,-2.92636 1.5732,-5.06078c0,-5.94545 -3.04229,-8.91817 -9.12686,-8.91817h-28.34058c-0.57507,0 -0.8626,0.28753 -0.8626,0.8626v5.67646c0,0.57507 0.28753,0.8626 0.8626,0.8626h28.00667c0.7193,0 1.1288,0.06984 1.22851,0.20953c0.03293,0.04589 0.07072,0.08718 0.11339,0.12386c0.14423,0.12355 0.21635,0.51792 0.21635,1.18312c0,0.6211 -0.0611,1.01563 -0.1833,1.18361c-0.30817,0.19411 -0.76649,0.29116 -1.37494,0.29116h-28.00667c-0.57507,0 -0.8626,0.28753 -0.8626,0.8626zM409.18859,236.4539h27.85363c2.18896,0 3.28345,1.10839 3.28345,3.32518v1.2939c0,1.16184 -0.2822,1.98612 -0.8466,2.47284c-0.49739,0.4291 -1.30967,0.64365 -2.43685,0.64365h-27.85363v4.91125h28.1458c5.54661,0 8.31992,-2.67592 8.31992,-8.02775v-1.2939c0,-2.60329 -0.84544,-4.48513 -2.53632,-5.64551c-0.01878,-0.01289 -0.03687,-0.02667 -0.05426,-0.04132c-0.01739,-0.01468 -0.03409,-0.03017 -0.05009,-0.04647c-0.01577,-0.01632 -0.03084,-0.03338 -0.04522,-0.05116c-0.01414,-0.01779 -0.02748,-0.03623 -0.04,-0.05534c-0.01229,-0.01908 -0.02365,-0.03875 -0.03409,-0.05899c-0.01067,-0.02022 -0.02017,-0.0409 -0.02852,-0.06205c-0.00858,-0.02117 -0.016,-0.04269 -0.02226,-0.06456c-0.00626,-0.02189 -0.01148,-0.04403 -0.01565,-0.06643c-0.00417,-0.0224 -0.0073,-0.04495 -0.00939,-0.06765c-0.00186,-0.0227 -0.00267,-0.04544 -0.00243,-0.06821c0.00023,-0.02279 0.00162,-0.04551 0.00417,-0.06814c0.00255,-0.02265 0.00614,-0.04512 0.01078,-0.06741c0.00487,-0.02228 0.01067,-0.04429 0.01739,-0.06602c0.00696,-0.0217 0.01496,-0.04303 0.024,-0.06396c0.00904,-0.02094 0.01901,-0.04139 0.02991,-0.06136c0.0109,-0.01997 0.02284,-0.03934 0.03583,-0.05812c0.03223,-0.04698 0.06968,-0.08936 0.11235,-0.12713c1.1237,-0.99531 1.68555,-2.53301 1.68555,-4.6131c0,-5.01792 -2.57852,-7.52688 -7.73557,-7.52688h-27.81189v4.61908h27.47798c1.1441,0 1.91372,0.24139 2.30885,0.72417c0.42713,0.4127 0.64069,1.14058 0.64069,2.18363c0,1.05471 -0.20707,1.78911 -0.62121,2.20318c-0.02713,0.02715 -0.05635,0.05187 -0.08765,0.07416c-0.54933,0.39248 -1.29622,0.58872 -2.24067,0.58872h-27.47798z" data-paper-data="{&quot;glyphName&quot;:&quot;b&quot;,&quot;glyphIndex&quot;:8,&quot;fontStyleEffect&quot;:true,&quot;word&quot;:1}" fill-rule="evenodd" style="fill: rgb(255, 255, 255);"></path><path d="M451.94294,220.37058c-0.95999,0 -1.62781,0.66782 -1.62781,1.62781v4.59126c0,0.12522 0.04174,0.16695 0.16695,0.16695h25.41887c1.04347,0 1.50259,0.16695 1.71129,0.45913c0.20869,0.20869 0.41739,0.62608 0.41739,1.62781v4.92517c0,1.66955 -0.45913,2.08694 -2.12867,2.08694h-15.10941c-0.16695,0 -0.25043,0.16695 -0.12522,0.29217c2.46258,2.33737 9.0573,8.72339 13.85725,13.39813c0,0.04174 0.04174,0.04174 0.12522,0.04174h9.47469c0.12522,0 0.25043,-0.16695 0.12522,-0.29217c-1.46085,-1.46085 -5.42603,-5.21734 -7.17906,-6.88689c-0.12522,-0.12522 -0.04174,-0.29217 0.12522,-0.29217c5.21734,-0.5426 7.80514,-2.46258 7.80514,-7.88862v-5.80168c0,-5.21734 -2.83823,-8.05557 -8.05557,-8.05557z" data-paper-data="{&quot;glyphName&quot;:&quot;r&quot;,&quot;glyphIndex&quot;:9,&quot;lastGlyphOfWord&quot;:true,&quot;word&quot;:1}" fill-rule="nonzero" style="fill: rgb(255, 255, 255);"></path><g data-paper-data="{&quot;fillRule&quot;:&quot;evenodd&quot;,&quot;fillRuleOriginal&quot;:&quot;evenodd&quot;,&quot;isIcon&quot;:true,&quot;iconStyle&quot;:&quot;icon-in-text&quot;,&quot;selectedEffects&quot;:{&quot;container&quot;:&quot;&quot;,&quot;transformation&quot;:&quot;&quot;,&quot;pattern&quot;:&quot;&quot;},&quot;bounds&quot;:{&quot;x&quot;:65.00000000000001,&quot;y&quot;:220.24536572016774,&quot;width&quot;:30.361976853763167,&quot;height&quot;:29.509268559664548},&quot;iconType&quot;:&quot;icon&quot;,&quot;rawIconId&quot;:&quot;23553&quot;,&quot;isDetailed&quot;:false,&quot;suitableAsStandaloneIcon&quot;:true}" fill-rule="evenodd"><path d="M95.36198,234.98119v0.03413c-0.00428,0.48218 -0.19031,0.96308 -0.55805,1.33113c-0.37345,0.37376 -0.86562,0.56109 -1.35809,0.56109c-0.48701,0 -0.97432,-0.18399 -1.34443,-0.55441c-0.55046,-0.55046 -0.69772,-1.34929 -0.43661,-2.0291c0.092,-0.24836 0.23743,-0.48063 0.43661,-0.68041c0.74387,-0.74387 1.94408,-0.75055 2.68826,-0.00668l0.01427,0.01336c0.36775,0.3679 0.55377,0.84871 0.55805,1.33089zM80.61908,224.06712c-0.48731,0 -0.97553,-0.18582 -1.34747,-0.55805c-0.74478,-0.74417 -0.75146,-1.95774 -0.00668,-2.70222c0.74417,-0.74417 1.94439,-0.75085 2.68826,-0.00668l0.01336,0.01336c0.74478,0.74448 0.74478,1.95137 0,2.69554c-0.37163,0.37194 -0.86016,0.55805 -1.34747,0.55805zM74.5831,223.68608c-0.39015,0 -0.78061,-0.14908 -1.07816,-0.44663c-0.5954,-0.5954 -0.60208,-1.56759 -0.00668,-2.1633c0.5951,-0.59479 1.55423,-0.60178 2.14963,-0.00668l0.01336,0.01336c0.5957,0.5954 0.5957,1.56091 0,2.15662c-0.29755,0.29755 -0.6877,0.44663 -1.07816,0.44663zM69.89763,223.30443c-0.29269,0 -0.58538,-0.11143 -0.80854,-0.33489c-0.44693,-0.44632 -0.45361,-1.17714 -0.00668,-1.62346c0.44572,-0.44632 1.16347,-0.45391 1.6104,-0.00668l0.01336,0.01336c0.44663,0.44632 0.44663,1.17046 0,1.61708c-0.22316,0.22316 -0.51585,0.33459 -0.80854,0.33459zM65.77567,222.92369c-0.19523,0 -0.39015,-0.07439 -0.53893,-0.22316c-0.29785,-0.29785 -0.30453,-0.78729 -0.00668,-1.08484c0.29694,-0.29755 0.77362,-0.30484 1.07148,-0.00668l0.01306,0.01306c0.29755,0.29724 0.29755,0.7803 0,1.07816c-0.14877,0.14877 -0.344,0.22346 -0.53893,0.22346zM84.90286,228.35121c-0.48701,0 -0.97523,-0.18582 -1.34747,-0.55805l-0.02854,-0.02824c-0.74417,-0.74448 -0.74417,-1.95137 0,-2.69554c0.74417,-0.74417 1.95167,-0.74417 2.69524,0l0.02884,0.02824c0.74448,0.74448 0.74448,1.95107 0,2.69554c-0.37163,0.37194 -0.86016,0.55805 -1.34807,0.55805zM78.86688,227.97016c-0.39015,0 -0.78061,-0.14877 -1.07816,-0.44663l-0.02824,-0.02824c-0.5957,-0.5957 -0.5957,-1.56091 0,-2.15662c0.59479,-0.5954 1.56122,-0.5954 2.15631,0l0.02824,0.02824c0.5951,0.5954 0.5951,1.56091 0,2.15662c-0.29724,0.29755 -0.6877,0.44663 -1.07816,0.44663zM74.18111,227.58882c-0.29269,0 -0.58508,-0.11143 -0.80854,-0.33489l-0.02824,-0.02854c-0.44663,-0.44632 -0.44663,-1.17046 0,-1.61708c0.44663,-0.44663 1.17046,-0.44663 1.61708,0l0.02824,0.02854c0.44663,0.44632 0.44663,1.17046 0,1.61708c-0.22316,0.22346 -0.51585,0.33489 -0.80854,0.33489zM70.05976,227.20777c-0.19523,0 -0.39015,-0.07439 -0.53893,-0.22346l-0.02854,-0.02854c-0.29785,-0.29755 -0.29785,-0.7803 0,-1.07816c0.29785,-0.29785 0.7803,-0.29785 1.07816,0l0.02854,0.02854c0.29785,0.29755 0.29785,0.7803 0,1.07816c-0.14938,0.14908 -0.34431,0.22346 -0.53923,0.22346zM89.18725,232.6356c-0.4867,0 -0.97159,-0.1843 -1.34413,-0.55411l-0.02854,-0.02854c-0.7466,-0.74205 -0.75055,-1.94864 -0.0082,-2.69554c0.74053,-0.7466 1.94833,-0.75055 2.69524,-0.0085l0.02945,0.02824c0.7463,0.74205 0.74994,1.94864 0.0082,2.69554c-0.37194,0.37497 -0.86259,0.56291 -1.35202,0.56291zM83.15066,232.25455c-0.38803,0 -0.77757,-0.14786 -1.07421,-0.44329l-0.02945,-0.02884c-0.59783,-0.59358 -0.60087,-1.55848 -0.00638,-2.15631c0.59358,-0.59722 1.55879,-0.60087 2.15631,-0.00668l0.02945,0.02824c0.59753,0.59358 0.60056,1.55879 0.00668,2.15631c-0.29907,0.29998 -0.69043,0.45057 -1.08241,0.45057zM78.46549,231.8729c-0.29269,0 -0.58538,-0.11173 -0.80854,-0.3352l-0.02824,-0.02824c-0.44663,-0.44663 -0.44663,-1.17046 0,-1.61708c0.44663,-0.44663 1.17046,-0.44663 1.61708,0l0.02824,0.02824c0.44663,0.44663 0.44663,1.17046 0,1.61708c-0.22346,0.22346 -0.51616,0.3352 -0.80854,0.3352zM74.34354,231.49156c-0.19432,0 -0.38863,-0.07348 -0.5371,-0.22134l-0.02884,-0.02824c-0.29876,-0.29694 -0.30058,-0.77939 -0.00364,-1.07816c0.29724,-0.29846 0.7803,-0.30028 1.07816,-0.00364l0.02854,0.02854c0.29907,0.29694 0.30058,0.77939 0.00364,1.07816c-0.14877,0.14999 -0.34491,0.22468 -0.54075,0.22468zM87.40985,236.52619c-0.39015,0 -0.77879,-0.14665 -1.07512,-0.44298c-0.44055,-0.44055 -0.55805,-1.08059 -0.34886,-1.62467c0.07317,-0.19948 0.19007,-0.3856 0.34886,-0.54591c0.59601,-0.59479 1.55484,-0.60147 2.14963,-0.00668l0.01366,0.01336c0.5954,0.5954 0.5954,1.56122 0,2.15692c-0.29967,0.29998 -0.69468,0.44997 -1.08818,0.44997zM82.72408,236.14484c-0.29208,0 -0.58326,-0.10961 -0.8049,-0.33155c-0.33125,-0.33125 -0.42082,-0.81188 -0.26263,-1.22025c0.05587,-0.14999 0.1427,-0.29026 0.26263,-0.4105c0.44602,-0.44632 1.16408,-0.45391 1.61071,-0.00668l0.01336,0.01336c0.44693,0.44632 0.44693,1.17015 0,1.61708c-0.22529,0.22589 -0.52223,0.33854 -0.81917,0.33854zM78.60243,235.76441c-0.19492,0 -0.38863,-0.07287 -0.53559,-0.22043c-0.22255,-0.22134 -0.28237,-0.54287 -0.17519,-0.81552c0.03613,-0.10111 0.09443,-0.19553 0.17519,-0.27599c0.29724,-0.29755 0.77393,-0.30484 1.07117,-0.00668l0.01336,0.01336c0.29755,0.29724 0.29755,0.78061 0,1.07816c-0.15029,0.1512 -0.34977,0.22711 -0.54895,0.22711zM89.1584,241.20164c-0.48701,0 -0.97553,-0.18551 -1.34747,-0.55775c-0.74417,-0.74448 -0.74417,-1.95167 0,-2.69585l0.02793,-0.02884c0.74387,-0.74357 1.95167,-0.74357 2.69524,0c0.74448,0.74417 0.74448,1.95167 0,2.69645l-0.02793,0.02824c-0.37163,0.37163 -0.85925,0.55775 -1.34777,0.55775zM83.12243,240.8206c-0.38955,0 -0.78,-0.14847 -1.07816,-0.44602c-0.5957,-0.59631 -0.5957,-1.56243 0,-2.15692l0.02854,-0.02854c0.5954,-0.59479 1.56182,-0.59479 2.15662,0c0.5957,0.5957 0.5957,1.56152 0,2.15692l-0.02884,0.02915c-0.29724,0.29694 -0.688,0.44541 -1.07816,0.44541zM78.43695,240.43956c-0.29269,0 -0.58538,-0.11173 -0.80854,-0.3352c-0.44663,-0.44663 -0.44663,-1.17046 0,-1.61648l0.02824,-0.02915c0.44663,-0.44663 1.17046,-0.44663 1.61708,0c0.44663,0.44663 0.44663,1.17046 0,1.61708l-0.02824,0.02854c-0.22316,0.22346 -0.51585,0.3352 -0.80854,0.3352zM74.3153,240.05851c-0.19523,0 -0.39015,-0.07469 -0.53893,-0.22346c-0.29785,-0.29724 -0.29785,-0.78061 0,-1.07816l0.02824,-0.02884c0.29755,-0.29755 0.7803,-0.29755 1.07816,0c0.29755,0.29755 0.29755,0.78091 0,1.07816l-0.02824,0.02884c-0.14908,0.14877 -0.34431,0.22346 -0.53923,0.22346zM84.87492,245.48543c-0.48761,0 -0.97614,-0.18582 -1.34747,-0.55805c-0.74478,-0.74417 -0.74478,-1.95167 0,-2.69585l0.02854,-0.02793c0.74357,-0.74478 1.95167,-0.74478 2.69524,0c0.74417,0.74417 0.74417,1.95107 0,2.69524l-0.02854,0.02854c-0.37224,0.37224 -0.86076,0.55805 -1.34777,0.55805zM78.83895,245.10438c-0.38863,0 -0.77727,-0.14756 -1.07482,-0.44238c-0.59722,-0.59449 -0.60056,-1.56 -0.00698,-2.15692l0.02824,-0.02884c0.59388,-0.59722 1.55909,-0.60056 2.15662,-0.00668c0.59722,0.59358 0.60026,1.55909 0.00698,2.15692l-0.02824,0.02854c-0.29815,0.29998 -0.68983,0.44936 -1.0818,0.44936zM74.15287,244.72334c-0.29147,0 -0.58295,-0.11052 -0.80581,-0.33277c-0.44814,-0.44511 -0.45057,-1.16894 -0.00516,-1.61708l0.02824,-0.02824c0.44511,-0.44845 1.16955,-0.45027 1.61708,-0.00607c0.44814,0.44541 0.45027,1.16985 0.00516,1.61739l-0.02824,0.02884c-0.22316,0.22559 -0.51737,0.33793 -0.81127,0.33793zM70.03122,244.34229c-0.19523,0 -0.38985,-0.07469 -0.53893,-0.22316c-0.29785,-0.29724 -0.29785,-0.78 0,-1.07846l0.02854,-0.02854c0.29785,-0.29724 0.78,-0.29724 1.07816,0c0.29785,0.29755 0.29785,0.78091 0,1.07816l-0.02854,0.02884c-0.14938,0.14817 -0.34431,0.22316 -0.53923,0.22316zM80.60541,249.75463c-0.48701,0 -0.97553,-0.18551 -1.34747,-0.55836c-0.74478,-0.74387 -0.74478,-1.95076 0,-2.69524c0.74417,-0.74448 1.95683,-0.75146 2.70101,-0.00668c0.74539,0.74478 0.75207,1.94499 0.00668,2.68856l-0.01336,0.01336c-0.37133,0.37194 -0.85925,0.55836 -1.34686,0.55836zM74.57004,249.37359c-0.39015,0 -0.78061,-0.14847 -1.07816,-0.44663c-0.5957,-0.5957 -0.5957,-1.56122 0,-2.15662c0.5951,-0.5954 1.56759,-0.60178 2.16299,-0.00638c0.5954,0.5957 0.60238,1.55393 0.00668,2.14963l-0.01366,0.01336c-0.29755,0.29815 -0.688,0.44663 -1.07785,0.44663zM69.88427,248.99194c-0.29269,0 -0.58538,-0.11112 -0.80854,-0.3352c-0.44693,-0.44693 -0.44693,-1.17015 0,-1.61678c0.44602,-0.44693 1.17744,-0.45331 1.62376,-0.00668c0.44663,0.44723 0.45331,1.16378 0.00668,1.61071l-0.01336,0.01366c-0.22346,0.22316 -0.51616,0.33429 -0.80854,0.33429zM65.76231,248.6109c-0.19523,0 -0.39015,-0.07408 -0.53893,-0.22286c-0.29785,-0.29724 -0.29785,-0.78 0,-1.07816c0.29724,-0.29724 0.78729,-0.30453 1.08484,-0.00668c0.29755,0.29785 0.30423,0.77393 0.00668,1.07148l-0.01336,0.01336c-0.14938,0.14877 -0.34431,0.22286 -0.53923,0.22286z" data-paper-data="{&quot;isPathIcon&quot;:true}" style="fill: rgb(255, 255, 255);"></path></g></g></g></g></svg>