<svg width="600" height="45" viewBox="0 0 600 45" fill="none" xmlns="http://www.w3.org/2000/svg">
<g clip-path="url(#clip0_54_30)">
<path d="M83.6922 1.05342C76.0003 1.05342 71.9457 4.86952 71.9457 12.5614V31.7015C71.9457 39.3934 76.2388 43.2095 83.6922 43.2095H113.327C119.528 43.2095 123.642 40.5263 124.596 34.3251C124.596 34.1462 124.477 34.0866 124.298 34.0866H85.1828C83.6922 34.0866 82.917 33.7289 82.4996 33.3115C82.0823 33.0134 81.8437 32.2382 81.8437 31.1053V13.098C81.8437 11.9651 82.0822 11.19 82.4996 10.8918C82.917 10.4744 83.6922 10.1763 85.1828 10.1763H124.298C124.596 10.1763 124.656 10.0571 124.536 9.87819C123.582 3.677 119.528 1.05344 113.327 1.05344L83.6922 1.05342Z" fill="white"/>
<path d="M131.871 31.7016C131.871 39.3934 136.164 43.2095 143.617 43.2095H172.953C180.407 43.2095 184.64 39.1549 184.64 31.7016V12.5614C184.64 4.86952 180.407 1.05341 172.953 1.05341H143.617C135.925 1.05341 131.871 4.86952 131.871 12.5614V31.7016ZM141.769 13.098C141.769 11.9651 142.007 11.19 142.424 10.8918C142.842 10.4745 143.617 10.1763 145.108 10.1763H171.463C173.788 10.1763 174.742 10.713 174.742 13.098V31.1053C174.742 32.4767 174.444 32.9537 174.146 33.3711C173.729 33.7885 172.953 34.0866 171.463 34.0866H145.108C143.617 34.0866 142.842 33.7289 142.424 33.3115C142.007 33.0134 141.769 32.2382 141.769 31.1053V13.098Z" fill="white"/>
<path d="M194.121 1.23228C192.749 1.23228 191.795 2.18631 191.795 3.55772V40.6456C191.795 42.017 192.749 42.971 194.121 42.971H199.368C199.905 42.971 200.561 42.8518 201.038 42.3151C201.574 41.7785 201.693 41.1226 201.693 40.6456V13.6347L231.924 41.9573L232.044 42.0766C232.461 42.3747 232.998 42.971 234.13 42.971H240.63C241.166 42.971 241.882 42.8518 242.359 42.3151C242.896 41.8381 243.015 41.1822 243.015 40.6456V3.55772C243.015 2.18631 242.001 1.23228 240.63 1.23228H235.383C234.011 1.23228 233.057 2.18631 233.057 3.55772V30.5687L202.886 2.24595C202.826 2.18632 202.826 2.18633 202.767 2.18633C202.349 1.76894 201.813 1.23228 200.68 1.23228H194.121Z" fill="white"/>
<path fill-rule="evenodd" clip-rule="evenodd" d="M296.56 0.238517H249.514C248.554 0.238517 247.761 0.551679 247.134 1.17802C246.508 1.80437 246.195 2.5976 246.195 3.55772V8.02972C246.195 9.01969 246.511 9.83033 247.142 10.4616C247.156 10.4754 247.17 10.4887 247.184 10.5016C247.82 11.0665 248.597 11.3489 249.514 11.3489H267.183V40.6455C267.183 41.5856 267.492 42.3696 268.11 42.9976C268.695 43.6424 269.492 43.9648 270.503 43.9648H275.631C276.641 43.9648 277.438 43.6423 278.023 42.9973C278.641 42.3694 278.95 41.5855 278.95 40.6455V11.3489H296.56C297.521 11.3489 298.318 11.0495 298.95 10.4505C299.609 9.82615 299.938 9.01923 299.938 8.02972V3.55772C299.938 2.77959 299.65 2.01969 299.073 1.27803C299.036 1.23003 298.995 1.18583 298.949 1.14541C298.269 0.540798 297.472 0.238517 296.56 0.238517ZM248.182 3.55772C248.182 2.66995 248.626 2.22606 249.514 2.22606H296.56C296.939 2.22606 297.273 2.34225 297.562 2.57464C297.821 2.92812 297.951 3.25583 297.951 3.55774V8.02974C297.951 8.91751 297.487 9.3614 296.56 9.3614H277.956C277.924 9.3614 277.891 9.36299 277.859 9.36617C277.826 9.36939 277.794 9.37416 277.762 9.38049C277.73 9.38685 277.698 9.39474 277.667 9.40419C277.636 9.41363 277.606 9.42458 277.576 9.43704C277.546 9.4495 277.516 9.46341 277.487 9.47878C277.459 9.49412 277.431 9.51082 277.404 9.52892C277.377 9.54698 277.351 9.56634 277.325 9.58701C277.3 9.60765 277.276 9.62948 277.253 9.65249C277.23 9.67552 277.208 9.69959 277.188 9.72473C277.167 9.7499 277.148 9.77602 277.13 9.80307C277.112 9.83013 277.095 9.85803 277.08 9.88671C277.064 9.91543 277.05 9.94482 277.038 9.97487C277.026 10.0049 277.015 10.0355 277.005 10.0667C276.996 10.0979 276.988 10.1294 276.981 10.1613C276.975 10.1932 276.97 10.2254 276.967 10.2578C276.964 10.2902 276.962 10.3226 276.962 10.3552V40.6456C276.962 41.0469 276.841 41.3692 276.598 41.6124C276.584 41.6262 276.57 41.6403 276.557 41.6549C276.366 41.8698 276.058 41.9772 275.631 41.9772H270.503C270.076 41.9772 269.767 41.8698 269.576 41.6549C269.563 41.6403 269.55 41.6262 269.536 41.6124C269.293 41.3692 269.171 41.0469 269.171 40.6456V10.3552C269.171 10.3226 269.169 10.2901 269.166 10.2578C269.163 10.2254 269.158 10.1932 269.152 10.1613C269.146 10.1294 269.138 10.0979 269.128 10.0667C269.119 10.0355 269.108 10.0049 269.095 9.97484C269.083 9.9448 269.069 9.91541 269.054 9.88669C269.039 9.85801 269.022 9.83015 269.004 9.80307C268.985 9.77602 268.966 9.74988 268.945 9.72471C268.925 9.69957 268.903 9.67548 268.88 9.65247C268.857 9.62944 268.833 9.60762 268.808 9.58699C268.783 9.56632 268.756 9.54695 268.729 9.5289C268.702 9.51081 268.674 9.4941 268.646 9.47876C268.617 9.46339 268.588 9.44947 268.557 9.43702C268.528 9.42456 268.497 9.41361 268.466 9.40417C268.435 9.39472 268.403 9.38683 268.371 9.38047C268.339 9.37414 268.307 9.36936 268.275 9.36615C268.242 9.36296 268.21 9.36138 268.177 9.36138H249.514C249.112 9.36138 248.783 9.25279 248.527 9.03562C248.297 8.79381 248.182 8.45851 248.182 8.02972L248.182 3.55772Z" fill="white"/>
<path fill-rule="evenodd" clip-rule="evenodd" d="M341.16 0.23851H305.444C304.484 0.23851 303.691 0.551673 303.064 1.17802C302.438 1.80436 302.125 2.5976 302.125 3.55771V10.1167C302.125 10.9382 302.535 11.349 303.357 11.349H339.67C340.646 11.349 341.191 11.4289 341.305 11.5887C341.338 11.6333 341.373 11.675 341.412 11.7138C341.615 11.9172 341.717 12.4581 341.717 13.3365V20.3725C341.717 21.2778 341.609 21.8348 341.393 22.0434C341.175 22.2545 340.601 22.36 339.67 22.36H318.085C317.537 22.36 317.154 22.6014 316.934 23.0842C316.7 23.5978 316.79 24.0611 317.203 24.4739L330.376 37.1775L336.802 43.4221C336.96 43.7839 337.32 43.9648 337.881 43.9648H351.416C351.907 43.9648 352.272 43.7449 352.512 43.3052C352.804 42.7704 352.732 42.2856 352.298 41.8509C351.124 40.6772 348.177 37.8457 343.455 33.3566C343.355 33.2615 343.26 33.171 343.17 33.085C346.479 32.5627 348.946 31.535 350.57 30.0019C352.632 28.0566 353.662 25.0655 353.662 21.0284V12.7403C353.662 8.73924 352.579 5.65534 350.412 3.48857C348.245 1.32187 345.161 0.23851 341.16 0.23851ZM304.112 3.55771C304.112 2.66994 304.556 2.22605 305.444 2.22605H341.16C348.17 2.22605 351.675 5.7308 351.675 12.7403V21.0284C351.675 24.494 350.852 27.0034 349.206 28.5565C347.67 30.0065 345.086 30.9228 341.456 31.3051C340.941 31.3228 340.578 31.5638 340.367 32.0282C340.134 32.5418 340.224 33.0051 340.637 33.4179C340.642 33.4236 340.648 33.4293 340.654 33.4349C340.911 33.6799 341.388 34.1339 342.086 34.797C345.543 38.0845 348.044 40.4779 349.589 41.9772H338.167L331.756 35.7468L319.935 24.3476H339.67C341.137 24.3476 342.172 24.0556 342.776 23.4717C343.395 22.8725 343.704 21.8394 343.704 20.3725V13.3365C343.704 11.9533 343.427 10.9625 342.871 10.3643C342.341 9.6957 341.274 9.36141 339.67 9.36141H304.112V3.55771ZM338.355 42.16L338.395 42.1987C338.442 42.245 338.485 42.2956 338.522 42.3504C338.56 42.4053 338.591 42.4633 338.617 42.5245C338.643 42.5857 338.663 42.6489 338.676 42.714C338.689 42.7791 338.696 42.8449 338.696 42.9114C338.696 42.5713 338.582 42.3209 338.355 42.16Z" fill="white"/>
<path fill-rule="evenodd" clip-rule="evenodd" d="M358.83 12.5614V31.7015C358.83 35.7832 359.958 38.9022 362.215 41.0585C364.41 43.155 367.528 44.2033 371.57 44.2033H400.906C404.917 44.2033 408.028 43.1226 410.239 40.9612C412.471 38.7796 413.587 35.6931 413.587 31.7015V12.5614C413.587 8.47676 412.469 5.35862 410.234 3.20696C408.054 1.10873 404.945 0.0596161 400.906 0.0596161H371.57C363.077 0.0596161 358.83 4.22686 358.83 12.5614ZM371.57 42.2157C364.402 42.2157 360.817 38.711 360.817 31.7015V12.5614C360.817 5.5519 364.402 2.04716 371.57 2.04716H400.906C408.035 2.04716 411.599 5.5519 411.599 12.5614V31.7015C411.599 38.711 408.035 42.2157 400.906 42.2157H371.57ZM369.731 10.1351C369.062 10.6602 368.728 11.6479 368.728 13.098V31.1053C368.728 32.5545 369.062 33.5419 369.73 34.0672C370.443 34.7427 371.553 35.0804 373.061 35.0804H399.416C401.002 35.0804 402.13 34.7449 402.801 34.0738C402.84 34.035 402.876 33.9933 402.908 33.9487C403.429 33.2194 403.689 32.2716 403.689 31.1053V13.098C403.689 10.4877 402.265 9.18252 399.416 9.18252H373.061C371.518 9.18252 370.408 9.50003 369.731 10.1351ZM370.715 31.1053V13.098C370.715 12.2805 370.795 11.8146 370.955 11.7005C371 11.6686 371.041 11.6333 371.08 11.5945C371.363 11.3116 372.023 11.1701 373.061 11.1701H399.416C400.392 11.1701 401.019 11.2842 401.299 11.5124C401.567 11.7316 401.701 12.2602 401.701 13.098V31.1053C401.701 31.7998 401.581 32.3373 401.341 32.718C401.032 32.9679 400.391 33.0928 399.416 33.0928H373.061C372.063 33.0928 371.403 32.9315 371.08 32.6087C371.041 32.57 371 32.5347 370.955 32.5028C370.795 32.3886 370.715 31.9228 370.715 31.1053Z" fill="white"/>
<path fill-rule="evenodd" clip-rule="evenodd" d="M418.755 3.55772V31.463C418.755 35.4641 419.838 38.548 422.005 40.7147C424.171 42.8814 427.255 43.9648 431.256 43.9648H467.808C468.758 43.9648 469.548 43.6491 470.18 43.0178C470.194 43.0041 470.207 42.9899 470.22 42.9754C470.824 42.2952 471.127 41.5186 471.127 40.6456V36.1736C471.127 35.2134 470.814 34.4202 470.187 33.7939C469.561 33.1675 468.768 32.8544 467.808 32.8544H432.687C431.921 32.8544 431.345 32.7351 430.96 32.4965C430.787 32.2609 430.7 31.7375 430.7 30.9264V3.55776C430.7 2.61788 430.391 1.83398 429.773 1.20604C429.188 0.561035 428.391 0.238541 427.381 0.238541H422.133C421.221 0.238541 420.424 0.540843 419.744 1.14546C419.699 1.18587 419.657 1.23008 419.62 1.27808C419.043 2.01974 418.755 2.77959 418.755 3.55772ZM431.256 41.9772C424.247 41.9772 420.742 38.4725 420.742 31.463V3.55772C420.742 3.25585 420.872 2.92817 421.131 2.57468C421.42 2.34227 421.754 2.22606 422.133 2.22606H427.381C427.808 2.22606 428.117 2.33351 428.307 2.54839C428.32 2.56297 428.334 2.57714 428.348 2.59088C428.591 2.83409 428.712 3.15638 428.712 3.55772V30.9264C428.712 32.3536 429.008 33.363 429.6 33.9546C429.638 33.9933 429.68 34.0286 429.724 34.0605C430.454 34.5814 431.442 34.8419 432.687 34.8419H467.808C468.695 34.8419 469.139 35.2858 469.139 36.1735V40.6455C469.139 41.0055 469.011 41.3343 468.755 41.632C468.514 41.8621 468.198 41.9772 467.808 41.9772H431.256Z" fill="white"/>
<path fill-rule="evenodd" clip-rule="evenodd" d="M481.283 32.7351H476.573C475.613 32.7351 474.829 33.0383 474.223 33.6448C473.616 34.2512 473.313 35.0345 473.313 35.9947V40.7052C473.313 41.6656 473.628 42.4367 474.259 43.0186C474.841 43.6494 475.612 43.9648 476.573 43.9648H481.283C482.244 43.9648 483.015 43.6494 483.597 43.0186C484.227 42.4366 484.543 41.6655 484.543 40.7051V35.9946C484.543 35.0345 484.24 34.2512 483.633 33.6448C483.026 33.0383 482.243 32.7351 481.283 32.7351ZM475.301 35.9947C475.301 35.1466 475.725 34.7226 476.573 34.7226H481.283C482.131 34.7226 482.555 35.1466 482.555 35.9947V40.7052C482.555 41.0923 482.448 41.3813 482.233 41.5723C482.204 41.5982 482.176 41.6257 482.15 41.6549C481.959 41.8698 481.67 41.9772 481.283 41.9772H476.573C476.186 41.9772 475.897 41.8698 475.706 41.6549C475.68 41.6257 475.652 41.5982 475.623 41.5723C475.408 41.3813 475.301 41.0923 475.301 40.7052V35.9947Z" fill="white"/>
<path fill-rule="evenodd" clip-rule="evenodd" d="M489.71 16.0793V24.9637C489.71 25.7852 490.121 26.196 490.943 26.196H531.489C532.605 26.196 533.334 26.3717 533.677 26.7232C534.02 27.0757 534.192 27.8209 534.192 28.9587V30.8071C534.192 31.8599 534.019 32.5358 533.672 32.8347C533.334 33.126 532.607 33.2717 531.489 33.2717H490.943C490.121 33.2717 489.71 33.6825 489.71 34.504V43.0306C489.71 43.8522 490.121 44.2629 490.943 44.2629H531.906C536.318 44.2629 539.713 43.1471 542.09 40.9154C544.549 38.6056 545.779 35.2361 545.779 30.8071V28.9587C545.779 25.0244 544.593 22.0282 542.22 19.9699C543.718 18.1993 544.468 15.7894 544.468 12.7403C544.468 4.24675 540.121 1.52588e-05 531.429 1.52588e-05H490.943C490.121 1.52588e-05 489.71 0.410765 489.71 1.23229V9.34151C489.71 10.163 490.121 10.5738 490.943 10.5738H530.952C531.98 10.5738 532.565 10.6736 532.707 10.8731C532.754 10.9387 532.808 10.9977 532.869 11.0501C533.075 11.2266 533.178 11.79 533.178 12.7403C533.178 13.6275 533.091 14.1912 532.916 14.4311C532.476 14.7084 531.821 14.8471 530.952 14.8471H490.943C490.121 14.8471 489.71 15.2578 489.71 16.0793ZM491.698 24.2085H531.489C534.616 24.2085 536.18 25.7919 536.18 28.9587V30.8071C536.18 32.4669 535.776 33.6445 534.97 34.3398C534.26 34.9528 533.099 35.2593 531.489 35.2593H491.698V42.2753H531.906C539.83 42.2753 543.792 38.4526 543.792 30.8071V28.9587C543.792 25.2397 542.584 22.5514 540.169 20.8937C540.142 20.8753 540.116 20.8556 540.091 20.8347C540.066 20.8137 540.042 20.7916 540.019 20.7683C539.997 20.745 539.975 20.7206 539.955 20.6952C539.935 20.6698 539.916 20.6434 539.898 20.6161C539.88 20.5889 539.864 20.5608 539.849 20.5319C539.834 20.503 539.82 20.4734 539.808 20.4432C539.796 20.413 539.785 20.3822 539.776 20.351C539.768 20.3197 539.76 20.2881 539.754 20.2561C539.748 20.2241 539.744 20.1919 539.741 20.1594C539.738 20.127 539.737 20.0945 539.737 20.062C539.738 20.0294 539.74 19.997 539.743 19.9647C539.747 19.9323 539.752 19.9002 539.759 19.8684C539.766 19.8365 539.774 19.8051 539.783 19.774C539.793 19.743 539.805 19.7126 539.818 19.6827C539.831 19.6527 539.845 19.6235 539.86 19.595C539.876 19.5665 539.893 19.5388 539.912 19.512C539.958 19.4449 540.011 19.3843 540.072 19.3304C541.677 17.9085 542.48 15.7118 542.48 12.7402C542.48 5.57177 538.796 1.98754 531.429 1.98754H491.698V8.58622H530.952C532.587 8.58622 533.686 8.93106 534.251 9.62075C534.861 10.2103 535.166 11.2502 535.166 12.7402C535.166 14.247 534.87 15.2961 534.278 15.8876C534.24 15.9264 534.198 15.9617 534.153 15.9936C533.368 16.5542 532.301 16.8346 530.952 16.8346H491.698V24.2085Z" fill="white"/>
<path d="M552.776 2.23227C551.404 2.23227 550.45 3.18629 550.45 4.55771V11.1167C550.45 11.2955 550.51 11.3552 550.689 11.3552H587.001C588.492 11.3552 589.148 11.5937 589.446 12.0111C589.744 12.3092 590.042 12.9055 590.042 14.3365V21.3725C590.042 23.7575 589.386 24.3538 587.001 24.3538H565.417C565.178 24.3538 565.059 24.5923 565.238 24.7712C568.756 28.1103 578.177 37.2332 585.034 43.9114C585.034 43.971 585.093 43.971 585.213 43.971H598.748C598.927 43.971 599.106 43.7325 598.927 43.5536C596.84 41.4667 591.175 36.1003 588.671 33.7152C588.492 33.5363 588.611 33.2978 588.85 33.2978C596.303 32.5227 600 29.7799 600 22.0284V13.7403C600 6.28691 595.945 2.23229 588.492 2.23229L552.776 2.23227Z" fill="white"/>
<path fill-rule="evenodd" clip-rule="evenodd" d="M43.3743 22.1046V22.1533C43.3681 22.8422 43.1024 23.5292 42.5771 24.055C42.0436 24.5889 41.3405 24.8565 40.6369 24.8565C39.9412 24.8565 39.245 24.5937 38.7163 24.0645C37.9299 23.2781 37.7196 22.137 38.0926 21.1658C38.224 20.811 38.4318 20.4792 38.7163 20.1938C39.779 19.1311 41.4936 19.1215 42.5567 20.1842L42.5771 20.2033C43.1024 20.7289 43.3681 21.4158 43.3743 22.1046ZM22.313 6.51306C21.6168 6.51306 20.9194 6.24759 20.388 5.71584C19.324 4.65274 19.3145 2.91908 20.3785 1.85554C21.4416 0.792436 23.1562 0.782888 24.2189 1.84599L24.2379 1.86508C25.3019 2.92863 25.3019 4.65274 24.2379 5.71584C23.707 6.24718 23.0091 6.51306 22.313 6.51306ZM13.6902 5.96872C13.1328 5.96872 12.575 5.75575 12.1499 5.33068C11.2993 4.48011 11.2898 3.09127 12.1404 2.24025C12.9905 1.39055 14.3607 1.38056 15.2113 2.23071L15.2304 2.24978C16.0814 3.10035 16.0814 4.47967 15.2304 5.33068C14.8053 5.75575 14.248 5.96872 13.6902 5.96872ZM6.99662 5.4235C6.57849 5.4235 6.16036 5.26432 5.84156 4.94509C5.20309 4.30749 5.19356 3.26346 5.83203 2.62586C6.46877 1.98826 7.49412 1.97742 8.1326 2.61632L8.15168 2.63539C8.78972 3.27299 8.78972 4.30748 8.15168 4.94551C7.83288 5.26431 7.41475 5.4235 6.99662 5.4235ZM1.10811 4.87959C0.829213 4.87959 0.550752 4.77332 0.338209 4.56079C-0.0872906 4.13529 -0.0968383 3.43609 0.328662 3.01102C0.752862 2.58595 1.43383 2.57553 1.85935 3.00147L1.87801 3.02013C2.30308 3.44476 2.30308 4.13484 1.87801 4.56035C1.66548 4.77288 1.38658 4.87959 1.10811 4.87959ZM28.4327 12.6332C27.7369 12.6332 27.0395 12.3677 26.5077 11.836L26.4669 11.7956C25.4038 10.7321 25.4038 9.00796 26.4669 7.94486C27.53 6.88176 29.255 6.88176 30.3173 7.94486L30.3585 7.98521C31.422 9.04875 31.422 10.7725 30.3585 11.836C29.8276 12.3673 29.1297 12.6332 28.4327 12.6332ZM19.8098 12.0888C19.2525 12.0888 18.6947 11.8763 18.2696 11.4508L18.2293 11.4104C17.3783 10.5594 17.3783 9.18057 18.2293 8.32956C19.079 7.47899 20.4596 7.47899 21.3097 8.32956L21.3501 8.36991C22.2002 9.22048 22.2002 10.5998 21.3501 11.4508C20.9254 11.8759 20.3676 12.0888 19.8098 12.0888ZM13.1159 11.5441C12.6977 11.5441 12.28 11.3849 11.9608 11.0657L11.9205 11.0249C11.2824 10.3873 11.2824 9.35278 11.9205 8.71475C12.5585 8.07671 13.5926 8.07671 14.2306 8.71475L14.2709 8.75554C14.909 9.39314 14.909 10.4276 14.2709 11.0657C13.9521 11.3849 13.534 11.5441 13.1159 11.5441ZM7.22824 10.9997C6.94934 10.9997 6.67088 10.8934 6.45834 10.6805L6.41756 10.6397C5.99206 10.2146 5.99206 9.52499 6.41756 9.09947C6.84306 8.67397 7.53228 8.67397 7.9578 9.09947L7.99857 9.14023C8.42407 9.56531 8.42407 10.255 7.99857 10.6805C7.78517 10.8934 7.5067 10.9997 7.22824 10.9997ZM34.5532 18.7538C33.8579 18.7538 33.1652 18.4905 32.633 17.9622L32.5923 17.9214C31.5257 16.8613 31.5201 15.1376 32.5806 14.0706C33.6385 13.004 35.3639 12.9984 36.4309 14.0585L36.473 14.0988C37.5391 15.1589 37.5443 16.8826 36.4847 17.9496C35.9533 18.4853 35.2524 18.7538 34.5532 18.7538ZM25.9295 18.2094C25.3752 18.2094 24.8187 17.9982 24.3949 17.5761L24.3529 17.5349C23.4988 16.687 23.4945 15.3085 24.3438 14.4545C25.1917 13.6013 26.5706 13.5961 27.4242 14.4449L27.4663 14.4853C28.3199 15.3333 28.3242 16.7121 27.4758 17.5657C27.0486 17.9943 26.4895 18.2094 25.9295 18.2094ZM19.2364 17.6642C18.8183 17.6642 18.4002 17.5046 18.0814 17.1853L18.041 17.145C17.403 16.5069 17.403 15.4729 18.041 14.8349C18.6791 14.1968 19.7131 14.1968 20.3511 14.8349L20.3915 14.8752C21.0295 15.5133 21.0295 16.5473 20.3915 17.1853C20.0723 17.5046 19.6541 17.6642 19.2364 17.6642ZM13.3479 17.1194C13.0703 17.1194 12.7927 17.0144 12.5806 16.8032L12.5394 16.7628C12.1126 16.3386 12.11 15.6494 12.5342 15.2226C12.9589 14.7963 13.649 14.7937 14.0745 15.2174L14.1152 15.2582C14.5425 15.6824 14.5446 16.3716 14.1204 16.7984C13.9079 17.0127 13.6277 17.1194 13.3479 17.1194ZM32.0141 24.3117C31.4567 24.3117 30.9015 24.1022 30.4782 23.6789C29.8488 23.0495 29.681 22.1352 29.9798 21.3579C30.0844 21.073 30.2514 20.8071 30.4782 20.5781C31.3296 19.7284 32.6994 19.7188 33.5491 20.5685L33.5686 20.5876C34.4192 21.4382 34.4192 22.8179 33.5686 23.6689C33.1405 24.0975 32.5762 24.3117 32.0141 24.3117ZM25.3201 23.7669C24.9029 23.7669 24.4869 23.6104 24.1703 23.2933C23.6971 22.8201 23.5691 22.1335 23.7951 21.5501C23.8749 21.3358 23.9989 21.1354 24.1703 20.9637C24.8074 20.3261 25.8332 20.3152 26.4713 20.9541L26.4904 20.9732C27.1288 21.6108 27.1288 22.6449 26.4904 23.2833C26.1685 23.606 25.7443 23.7669 25.3201 23.7669ZM19.4321 23.2235C19.1536 23.2235 18.8769 23.1194 18.6669 22.9086C18.349 22.5924 18.2635 22.133 18.4166 21.7435C18.4683 21.5991 18.5516 21.4642 18.6669 21.3493C19.0916 20.9242 19.7725 20.9138 20.1972 21.3397L20.2162 21.3588C20.6413 21.7834 20.6413 22.474 20.2162 22.899C20.0015 23.115 19.7166 23.2235 19.4321 23.2235ZM34.512 30.991C33.8163 30.991 33.1184 30.7259 32.587 30.1942C31.5239 29.1306 31.5239 27.4061 32.587 26.3429L32.6269 26.3018C33.6896 25.2395 35.4151 25.2395 36.4773 26.3018C37.5408 27.3649 37.5408 29.0898 36.4773 30.1538L36.4374 30.1942C35.9065 30.7251 35.2099 30.991 34.512 30.991ZM25.8892 30.4466C25.3327 30.4466 24.7749 30.2345 24.349 29.8094C23.498 28.9575 23.498 27.5774 24.349 26.7281L24.3897 26.6873C25.2403 25.8376 26.6209 25.8376 27.4706 26.6873C28.3216 27.5383 28.3216 28.9181 27.4706 29.7687L27.4294 29.8103C27.0048 30.2345 26.4466 30.4466 25.8892 30.4466ZM19.1957 29.9023C18.7775 29.9023 18.3594 29.7426 18.0406 29.4234C17.4026 28.7854 17.4026 27.7513 18.0406 27.1141L18.0809 27.0725C18.719 26.4345 19.753 26.4345 20.391 27.0725C21.0291 27.7105 21.0291 28.7446 20.391 29.3826L20.3507 29.4234C20.0319 29.7426 19.6138 29.9023 19.1957 29.9023ZM13.3076 29.3579C13.0287 29.3579 12.7502 29.2512 12.5377 29.0387C12.1122 28.614 12.1122 27.9235 12.5377 27.4985L12.578 27.4572C13.0031 27.0322 13.6927 27.0322 14.1182 27.4572C14.5433 27.8823 14.5433 28.5728 14.1182 28.9975L14.0779 29.0387C13.8649 29.2512 13.586 29.3579 13.3076 29.3579ZM28.3928 37.1106C27.6962 37.1106 26.9983 36.8452 26.4678 36.3134C25.4038 35.2503 25.4038 33.5253 26.4678 32.4622L26.5086 32.4223C27.5708 31.3583 29.2967 31.3583 30.3589 32.4223C31.422 33.4854 31.422 35.2095 30.3589 36.2727L30.3181 36.3134C29.7864 36.8452 29.0885 37.1106 28.3928 37.1106ZM19.7699 36.5663C19.2148 36.5663 18.6596 36.3555 18.2345 35.9343C17.3813 35.085 17.3765 33.7057 18.2245 32.853L18.2649 32.8118C19.1133 31.9586 20.4921 31.9539 21.3457 32.8023C22.1989 33.6502 22.2033 35.0295 21.3557 35.8836L21.3154 35.9243C20.8894 36.3529 20.3299 36.5663 19.7699 36.5663ZM13.0755 36.0219C12.6592 36.0219 12.2428 35.864 11.9244 35.5466C11.2842 34.9107 11.2807 33.8766 11.917 33.2364L11.9574 33.1961C12.5932 32.5555 13.6281 32.5529 14.2675 33.1874C14.9077 33.8237 14.9107 34.8586 14.2748 35.498L14.2345 35.5392C13.9157 35.8615 13.4954 36.0219 13.0755 36.0219ZM7.18747 35.4776C6.90857 35.4776 6.63053 35.3709 6.41756 35.1588C5.99206 34.7341 5.99206 34.0445 6.41756 33.6181L6.45834 33.5774C6.88384 33.1527 7.57263 33.1527 7.99857 33.5774C8.42407 34.0024 8.42407 34.6929 7.99857 35.1176L7.9578 35.1588C7.7444 35.3705 7.46592 35.4776 7.18747 35.4776ZM22.2934 43.2095C21.5977 43.2095 20.8998 42.9445 20.3685 42.4118C19.3045 41.3492 19.3045 39.6251 20.3685 38.5615C21.4316 37.498 23.164 37.488 24.2271 38.552C25.2919 39.6159 25.3015 41.3305 24.2366 42.3928L24.2175 42.4118C23.6871 42.9432 22.99 43.2095 22.2934 43.2095ZM13.6715 42.6652C13.1141 42.6652 12.5563 42.4531 12.1313 42.0271C11.2803 41.1761 11.2803 39.7968 12.1313 38.9462C12.9814 38.0957 14.3707 38.0865 15.2213 38.9371C16.0718 39.7881 16.0818 41.157 15.2308 42.008L15.2113 42.0271C14.7862 42.453 14.2284 42.6652 13.6715 42.6652ZM6.97754 42.1199C6.55941 42.1199 6.14128 41.9612 5.82248 41.6411C5.18401 41.0026 5.18401 39.9694 5.82248 39.3314C6.45965 38.6929 7.50454 38.6838 8.14214 39.3219C8.78019 39.9608 8.78972 40.9844 8.15168 41.6229L8.1326 41.6424C7.81337 41.9612 7.39522 42.1199 6.97754 42.1199ZM1.08902 41.5756C0.810118 41.5756 0.531668 41.4698 0.319125 41.2572C-0.106375 40.8326 -0.106375 40.1429 0.319125 39.717C0.743754 39.2924 1.44382 39.282 1.86889 39.7075C2.29397 40.133 2.30351 40.8131 1.87844 41.2381L1.85935 41.2572C1.64595 41.4698 1.36748 41.5756 1.08902 41.5756Z" fill="white"/>
</g>
<defs>
<clipPath id="clip0_54_30">
<rect width="600" height="44.2629" fill="white"/>
</clipPath>
</defs>
</svg>
