<svg width="100" height="98" viewBox="0 0 100 98" fill="none" xmlns="http://www.w3.org/2000/svg">
<path fill-rule="evenodd" clip-rule="evenodd" d="M100 48.5337V48.6462C99.9859 50.2343 99.3732 51.8182 98.162 53.0304C96.932 54.2614 95.311 54.8784 93.689 54.8784C92.085 54.8784 90.48 54.2724 89.261 53.0524C87.448 51.2394 86.963 48.6084 87.823 46.3694C88.126 45.5514 88.605 44.7863 89.261 44.1283C91.711 41.6783 95.664 41.6563 98.115 44.1063L98.162 44.1503C99.3732 45.3621 99.9859 46.9456 100 48.5337ZM51.4429 12.5873C49.8379 12.5873 48.2299 11.9752 47.0049 10.7493C44.5519 8.29827 44.5299 4.3013 46.9829 1.84929C49.4339 -0.601705 53.3869 -0.623717 55.8369 1.82727L55.8809 1.8713C58.3339 4.32331 58.3339 8.29827 55.8809 10.7493C54.6569 11.9743 53.0479 12.5873 51.4429 12.5873ZM31.5628 11.3323C30.2778 11.3323 28.9918 10.8413 28.0118 9.86128C26.0508 7.90028 26.0288 4.69828 27.9898 2.73626C29.9498 0.777264 33.1088 0.754231 35.0698 2.71425L35.1138 2.75822C37.0758 4.71922 37.0758 7.89926 35.1138 9.86128C34.1338 10.8413 32.8488 11.3323 31.5628 11.3323ZM16.1308 10.0753C15.1668 10.0753 14.2028 9.70829 13.4678 8.9723C11.9958 7.50231 11.9738 5.09529 13.4458 3.62529C14.9138 2.1553 17.2778 2.13029 18.7498 3.60328L18.7938 3.64725C20.2648 5.11725 20.2648 7.50227 18.7938 8.97326C18.0588 9.70825 17.0948 10.0753 16.1308 10.0753ZM2.55477 8.82128C1.91176 8.82128 1.26977 8.57627 0.779746 8.08628C-0.20125 7.10529 -0.223262 5.49328 0.757734 4.51327C1.73573 3.53326 3.30572 3.50924 4.28675 4.49126L4.32977 4.53428C5.30978 5.51326 5.30978 7.10425 4.32977 8.08528C3.83978 8.57527 3.19679 8.82128 2.55477 8.82128ZM65.5519 26.6973C63.9479 26.6973 62.3399 26.0853 61.1139 24.8593L61.0199 24.7663C58.5689 22.3143 58.5689 18.3393 61.0199 15.8883C63.4709 13.4373 67.4479 13.4373 69.8969 15.8883L69.9919 15.9813C72.4439 18.4333 72.4439 22.4074 69.9919 24.8593C68.7679 26.0844 67.1589 26.6973 65.5519 26.6973ZM45.6719 25.4423C44.3869 25.4423 43.1008 24.9523 42.1208 23.9713L42.0278 23.8782C40.0658 21.9163 40.0658 18.7373 42.0278 16.7752C43.9868 14.8142 47.1698 14.8142 49.1298 16.7752L49.2228 16.8683C51.1829 18.8293 51.1829 22.0092 49.2228 23.9713C48.2439 24.9513 46.9579 25.4423 45.6719 25.4423ZM30.2388 24.1863C29.2748 24.1863 28.3118 23.8193 27.5758 23.0833L27.4828 22.9893C26.0118 21.5193 26.0118 19.1343 27.4828 17.6633C28.9538 16.1923 31.3379 16.1923 32.8088 17.6633L32.9018 17.7573C34.3728 19.2273 34.3728 21.6124 32.9018 23.0833C32.1668 23.8193 31.2028 24.1863 30.2388 24.1863ZM16.6648 22.9313C16.0218 22.9313 15.3798 22.6863 14.8898 22.1953L14.7958 22.1013C13.8148 21.1213 13.8148 19.5313 14.7958 18.5503C15.7768 17.5693 17.3658 17.5693 18.3468 18.5503L18.4408 18.6443C19.4218 19.6243 19.4218 21.2143 18.4408 22.1953C17.9488 22.6863 17.3068 22.9313 16.6648 22.9313ZM79.6629 40.8084C78.0599 40.8084 76.4629 40.2014 75.2359 38.9833L75.1419 38.8893C72.6829 36.4453 72.6699 32.4713 75.1149 30.0113C77.5539 27.5523 81.5319 27.5393 83.9919 29.9833L84.0889 30.0763C86.5469 32.5204 86.5589 36.4944 84.1159 38.9544C82.8909 40.1894 81.2749 40.8084 79.6629 40.8084ZM59.7809 39.5533C58.5028 39.5533 57.2199 39.0663 56.2429 38.0933L56.1459 37.9983C54.1768 36.0433 54.1668 32.8653 56.1248 30.8963C58.0799 28.9293 61.2589 28.9173 63.2269 30.8743L63.3238 30.9673C65.2919 32.9223 65.3019 36.1014 63.3459 38.0693C62.3608 39.0574 61.0719 39.5533 59.7809 39.5533ZM44.3498 38.2963C43.3858 38.2963 42.4218 37.9283 41.6868 37.1923L41.5938 37.0993C40.1228 35.6283 40.1228 33.2443 41.5938 31.7733C43.0648 30.3023 45.4488 30.3023 46.9198 31.7733L47.0128 31.8663C48.4839 33.3373 48.4839 35.7213 47.0128 37.1923C46.2769 37.9283 45.3128 38.2963 44.3498 38.2963ZM30.7738 37.0403C30.1338 37.0403 29.4938 36.7983 29.0048 36.3113L28.9099 36.2183C27.9259 35.2403 27.9198 33.6513 28.8978 32.6673C29.8768 31.6843 31.4678 31.6783 32.4489 32.6553L32.5429 32.7493C33.5279 33.7273 33.5329 35.3163 32.5549 36.3003C32.0649 36.7943 31.4188 37.0403 30.7738 37.0403ZM73.8089 53.6223C72.5239 53.6223 71.2439 53.1393 70.2679 52.1633C68.8169 50.7124 68.4299 48.6043 69.1189 46.8124C69.3599 46.1554 69.7449 45.5423 70.2679 45.0143C72.2309 43.0554 75.3889 43.0333 77.3479 44.9923L77.3929 45.0364C79.3539 46.9974 79.3539 50.1784 77.3929 52.1404C76.4059 53.1284 75.1049 53.6223 73.8089 53.6223ZM58.3759 52.3663C57.4139 52.3663 56.4549 52.0053 55.7249 51.2744C54.6339 50.1834 54.3389 48.6003 54.8599 47.2553C55.0439 46.7613 55.3299 46.2994 55.7249 45.9033C57.1939 44.4333 59.5589 44.4083 61.0299 45.8813L61.0739 45.9253C62.5459 47.3953 62.5459 49.7793 61.0739 51.2513C60.3319 51.9953 59.3539 52.3663 58.3759 52.3663ZM44.8009 51.1133C44.1589 51.1133 43.5209 50.8733 43.0369 50.3873C42.3039 49.6583 42.1068 48.5993 42.4598 47.7013C42.5788 47.3683 42.7709 47.0574 43.0369 46.7924C44.0158 45.8124 45.5858 45.7883 46.5648 46.7703L46.6088 46.8144C47.5888 47.7934 47.5888 49.3854 46.6088 50.3654C46.1138 50.8634 45.4569 51.1133 44.8009 51.1133ZM79.5679 69.0214C77.9639 69.0214 76.3549 68.4104 75.1299 67.1844C72.6789 64.7324 72.6789 60.7564 75.1299 58.3054L75.2219 58.2104C77.6719 55.7614 81.6499 55.7614 84.0989 58.2104C86.5509 60.6614 86.5509 64.6383 84.0989 67.0913L84.0069 67.1844C82.7829 68.4084 81.1769 69.0214 79.5679 69.0214ZM59.6879 67.7664C58.4049 67.7664 57.1189 67.2774 56.1369 66.2973C54.1749 64.3333 54.1749 61.1514 56.1369 59.1934L56.2309 59.0993C58.1919 57.1404 61.3749 57.1404 63.3339 59.0993C65.2959 61.0613 65.2959 64.2424 63.3339 66.2034L63.2389 66.2994C62.2599 67.2774 60.9729 67.7664 59.6879 67.7664ZM44.2558 66.5114C43.2918 66.5114 42.3278 66.1434 41.5928 65.4074C40.1218 63.9363 40.1218 61.5524 41.5928 60.0834L41.6858 59.9873C43.1569 58.5163 45.5409 58.5163 47.0118 59.9873C48.4829 61.4583 48.4829 63.8423 47.0118 65.3133L46.9188 65.4074C46.1838 66.1433 45.2198 66.5114 44.2558 66.5114ZM30.6808 65.2564C30.0378 65.2564 29.3958 65.0104 28.9058 64.5204C27.9248 63.5414 27.9248 61.9494 28.9058 60.9694L28.9988 60.8743C29.9788 59.8943 31.5688 59.8943 32.5498 60.8743C33.5298 61.8544 33.5298 63.4464 32.5498 64.4254L32.4568 64.5204C31.9658 65.0104 31.3228 65.2564 30.6808 65.2564ZM65.4599 83.1304C63.8539 83.1304 62.2449 82.5184 61.0219 81.2924C58.5689 78.8415 58.5689 74.8644 61.0219 72.4134L61.1159 72.3214C63.5649 69.8684 67.5439 69.8684 69.9929 72.3214C72.4439 74.7724 72.4439 78.7474 69.9929 81.1984L69.8989 81.2924C68.6729 82.5184 67.0639 83.1304 65.4599 83.1304ZM45.5799 81.8754C44.2999 81.8754 43.0199 81.3894 42.0398 80.4184C40.0728 78.4604 40.0618 75.2804 42.0169 73.3144L42.1099 73.2194C44.0659 71.2524 47.2449 71.2414 49.2129 73.1974C51.1799 75.1524 51.1899 78.3324 49.2359 80.3014L49.1429 80.3954C48.1609 81.3834 46.8709 81.8754 45.5799 81.8754ZM30.1458 80.6204C29.1859 80.6204 28.2258 80.2564 27.4918 79.5244C26.0158 78.0584 26.0078 75.6744 27.4748 74.1984L27.5678 74.1054C29.0338 72.6284 31.4199 72.6224 32.8938 74.0854C34.3698 75.5524 34.3768 77.9384 32.9108 79.4124L32.8178 79.5074C32.0828 80.2504 31.1138 80.6204 30.1458 80.6204ZM16.5708 79.3654C15.9278 79.3654 15.2868 79.1194 14.7958 78.6304C13.8148 77.6514 13.8148 76.0614 14.7958 75.0784L14.8898 74.9844C15.8708 74.0054 17.4588 74.0054 18.4408 74.9844C19.4218 75.9644 19.4218 77.5564 18.4408 78.5354L18.3468 78.6304C17.8548 79.1184 17.2128 79.3654 16.5708 79.3654ZM51.3979 97.1914C49.7938 97.1914 48.1849 96.5804 46.9599 95.3524C44.5069 92.9024 44.5069 88.9274 46.9599 86.4754C49.4108 84.0234 53.4048 84.0004 55.8559 86.4534C58.3109 88.9064 58.3329 92.8594 55.8779 95.3084L55.8339 95.3524C54.6109 96.5774 53.0038 97.1914 51.3979 97.1914ZM31.5198 95.9364C30.2348 95.9364 28.9488 95.4474 27.9688 94.4654C26.0068 92.5034 26.0068 89.3234 27.9688 87.3624C29.9288 85.4014 33.1318 85.3804 35.0928 87.3414C37.0538 89.3034 37.0768 92.4594 35.1148 94.4214L35.0698 94.4654C34.0898 95.4474 32.8038 95.9364 31.5198 95.9364ZM16.0868 94.6794C15.1228 94.6794 14.1588 94.3134 13.4238 93.5754C11.9518 92.1034 11.9518 89.7214 13.4238 88.2504C14.8928 86.7784 17.3018 86.7574 18.7718 88.2284C20.2428 89.7014 20.2648 92.0614 18.7938 93.5334L18.7498 93.5784C18.0138 94.3134 17.0498 94.6794 16.0868 94.6794ZM2.51075 93.4244C1.86774 93.4244 1.22577 93.1805 0.735747 92.6905C-0.245249 91.7115 -0.245249 90.1214 0.735747 89.1394C1.71473 88.1604 3.32875 88.1364 4.30876 89.1174C5.28877 90.0984 5.31078 91.6664 4.33077 92.6464L4.28675 92.6905C3.79475 93.1804 3.15273 93.4244 2.51075 93.4244Z" fill="#2D2926"/>
</svg>
