<svg width="231" height="17" viewBox="0 0 231 17" fill="none" xmlns="http://www.w3.org/2000/svg">
<path d="M32.1435 0.404602C29.1893 0.404602 27.6321 1.87025 27.6321 4.82444V12.1756C27.6321 15.1298 29.2809 16.5954 32.1435 16.5954H43.5252C45.9069 16.5954 47.4871 15.5649 47.8535 13.1832C47.8535 13.1145 47.8077 13.0916 47.739 13.0916H32.7161C32.1435 13.0916 31.8458 12.9542 31.6855 12.7939C31.5252 12.6794 31.4336 12.3817 31.4336 11.9466V5.03056C31.4336 4.59545 31.5252 4.29773 31.6855 4.18323C31.8458 4.02292 32.1435 3.90843 32.7161 3.90843H47.739C47.8535 3.90843 47.8764 3.86262 47.8306 3.79392C47.4642 1.41224 45.9069 0.40461 43.5252 0.40461L32.1435 0.404602Z" fill="white"/>
<path d="M50.6474 12.1756C50.6474 15.1298 52.2962 16.5954 55.1588 16.5954H66.426C69.2886 16.5954 70.9146 15.0382 70.9146 12.1756V4.82445C70.9146 1.87025 69.2886 0.404602 66.426 0.404602H55.1588C52.2046 0.404602 50.6474 1.87025 50.6474 4.82445V12.1756ZM54.4489 5.03056C54.4489 4.59545 54.5405 4.29774 54.7008 4.18324C54.8611 4.02293 55.1588 3.90843 55.7313 3.90843H65.8535C66.7466 3.90843 67.113 4.11454 67.113 5.03057V11.9466C67.113 12.4733 66.9985 12.6565 66.884 12.8168C66.7237 12.9771 66.426 13.0916 65.8535 13.0916H55.7313C55.1588 13.0916 54.8611 12.9542 54.7008 12.7939C54.5405 12.6794 54.4489 12.3817 54.4489 11.9466V5.03056Z" fill="white"/>
<path d="M74.5558 0.473267C74.0291 0.473267 73.6627 0.839678 73.6627 1.3664V15.6107C73.6627 16.1374 74.0291 16.5038 74.5558 16.5038H76.5711C76.7772 16.5038 77.0291 16.458 77.2123 16.2519C77.4184 16.0458 77.4642 15.7939 77.4642 15.6107V5.23663L89.0749 16.1145L89.1207 16.1603C89.281 16.2748 89.4871 16.5038 89.9222 16.5038H92.4184C92.6245 16.5038 92.8993 16.458 93.0825 16.2519C93.2886 16.0687 93.3344 15.8168 93.3344 15.6107V1.3664C93.3344 0.839678 92.9451 0.473267 92.4184 0.473267H90.4031C89.8764 0.473267 89.51 0.839678 89.51 1.3664V11.7405L77.9222 0.862583C77.8993 0.839682 77.8993 0.839686 77.8764 0.839686C77.7161 0.679381 77.51 0.473267 77.0749 0.473267H74.5558Z" fill="white"/>
<path fill-rule="evenodd" clip-rule="evenodd" d="M113.899 0.0916221H95.8306C95.4619 0.0916221 95.1572 0.211898 94.9167 0.452457C94.6761 0.693016 94.5558 0.997674 94.5558 1.36642V3.08398C94.5558 3.4642 94.677 3.77554 94.9195 4.01799C94.9247 4.02328 94.9301 4.02841 94.9357 4.03337C95.1799 4.25031 95.4782 4.35879 95.8306 4.35879H102.617V15.6107C102.617 15.9718 102.735 16.2729 102.973 16.514C103.197 16.7617 103.504 16.8855 103.892 16.8855H105.861C106.249 16.8855 106.555 16.7617 106.78 16.5139C107.017 16.2728 107.136 15.9717 107.136 15.6107V4.35879H113.899C114.269 4.35879 114.574 4.24377 114.817 4.01373C115.07 3.77393 115.197 3.46402 115.197 3.08398V1.36642C115.197 1.06757 115.086 0.775715 114.865 0.490868C114.85 0.472433 114.834 0.455454 114.817 0.439932C114.556 0.207719 114.25 0.0916221 113.899 0.0916221ZM95.3191 1.36642C95.3191 1.02546 95.4896 0.854976 95.8306 0.854976H113.899C114.045 0.854976 114.173 0.899601 114.284 0.988853C114.384 1.12462 114.434 1.25048 114.434 1.36643V3.08399C114.434 3.42495 114.256 3.59544 113.899 3.59544H106.754C106.742 3.59544 106.729 3.59605 106.717 3.59727C106.704 3.5985 106.692 3.60034 106.68 3.60277C106.667 3.60521 106.655 3.60824 106.643 3.61187C106.631 3.6155 106.62 3.6197 106.608 3.62449C106.597 3.62927 106.585 3.63462 106.574 3.64052C106.563 3.64641 106.553 3.65282 106.542 3.65978C106.532 3.66671 106.522 3.67415 106.512 3.68209C106.502 3.69002 106.493 3.6984 106.484 3.70724C106.476 3.71608 106.467 3.72533 106.459 3.73498C106.451 3.74465 106.444 3.75468 106.437 3.76507C106.43 3.77546 106.423 3.78618 106.418 3.79719C106.412 3.80822 106.406 3.81951 106.402 3.83105C106.397 3.8426 106.393 3.85435 106.389 3.86631C106.385 3.87829 106.382 3.89041 106.38 3.90266C106.377 3.91492 106.376 3.92728 106.374 3.93972C106.373 3.95215 106.373 3.96461 106.373 3.97712V15.6107C106.373 15.7649 106.326 15.8886 106.232 15.982C106.227 15.9873 106.222 15.9928 106.217 15.9984C106.144 16.0809 106.025 16.1222 105.861 16.1222H103.892C103.728 16.1222 103.609 16.0809 103.536 15.9984C103.531 15.9928 103.526 15.9873 103.52 15.982C103.427 15.8886 103.38 15.7649 103.38 15.6107V3.97712C103.38 3.96461 103.38 3.95214 103.378 3.93971C103.377 3.92727 103.375 3.91492 103.373 3.90265C103.37 3.8904 103.367 3.87829 103.364 3.86631C103.36 3.85435 103.356 3.8426 103.351 3.83104C103.346 3.8195 103.341 3.80821 103.335 3.79719C103.329 3.78617 103.323 3.77547 103.316 3.76507C103.309 3.75468 103.301 3.74464 103.294 3.73497C103.286 3.72532 103.277 3.71607 103.268 3.70723C103.26 3.69838 103.25 3.69 103.241 3.68208C103.231 3.67414 103.221 3.6667 103.211 3.65977C103.2 3.65282 103.189 3.6464 103.178 3.64051C103.167 3.63461 103.156 3.62926 103.145 3.62448C103.133 3.61969 103.121 3.61549 103.109 3.61186C103.097 3.60824 103.085 3.6052 103.073 3.60276C103.061 3.60033 103.048 3.5985 103.036 3.59726C103.023 3.59604 103.011 3.59543 102.999 3.59543H95.8306C95.6761 3.59543 95.5498 3.55373 95.4516 3.47032C95.3633 3.37744 95.3191 3.24866 95.3191 3.08398L95.3191 1.36642Z" fill="white"/>
<path fill-rule="evenodd" clip-rule="evenodd" d="M131.029 0.0916138H117.312C116.943 0.0916138 116.638 0.21189 116.398 0.452449C116.157 0.693007 116.037 0.997665 116.037 1.36642V3.8855C116.037 4.20103 116.194 4.35879 116.51 4.35879H130.457C130.832 4.35879 131.041 4.38948 131.085 4.45085C131.097 4.468 131.111 4.48402 131.126 4.49892C131.204 4.57705 131.243 4.7848 131.243 5.12214V7.82444C131.243 8.17214 131.201 8.38606 131.119 8.4662C131.035 8.54727 130.814 8.5878 130.457 8.5878H122.166C121.956 8.5878 121.809 8.6805 121.724 8.86593C121.635 9.06321 121.669 9.24112 121.828 9.39967L126.887 14.2787L129.355 16.6771C129.416 16.816 129.554 16.8855 129.77 16.8855H134.968C135.157 16.8855 135.297 16.8011 135.389 16.6322C135.501 16.4268 135.473 16.2406 135.307 16.0736C134.856 15.6228 133.724 14.5354 131.911 12.8113C131.872 12.7747 131.836 12.74 131.801 12.7069C133.072 12.5063 134.019 12.1116 134.643 11.5228C135.435 10.7757 135.831 9.62687 135.831 8.07635V4.89314C135.831 3.35648 135.415 2.17205 134.582 1.33986C133.75 0.507697 132.566 0.0916138 131.029 0.0916138ZM116.8 1.36642C116.8 1.02545 116.971 0.854968 117.312 0.854968H131.029C133.721 0.854968 135.067 2.20103 135.067 4.89314V8.07635C135.067 9.40741 134.751 10.3712 134.119 10.9677C133.529 11.5246 132.537 11.8765 131.143 12.0233C130.945 12.0301 130.806 12.1227 130.724 12.301C130.635 12.4983 130.669 12.6762 130.828 12.8348C130.83 12.837 130.832 12.8391 130.835 12.8413C130.933 12.9354 131.117 13.1098 131.384 13.3645C132.712 14.6271 133.673 15.5463 134.266 16.1222H129.879L127.417 13.7292L122.877 9.35117H130.457C131.02 9.35117 131.418 9.23903 131.649 9.01476C131.887 8.78463 132.006 8.38786 132.006 7.82445V5.12216C132.006 4.5909 131.899 4.21038 131.686 3.98061C131.482 3.72383 131.073 3.59544 130.457 3.59544H116.8V1.36642ZM129.952 16.1923L129.967 16.2072C129.985 16.225 130.002 16.2444 130.016 16.2655C130.03 16.2865 130.042 16.3088 130.052 16.3324C130.062 16.3559 130.07 16.3801 130.075 16.4051C130.08 16.4301 130.082 16.4554 130.082 16.4809C130.082 16.3503 130.039 16.2541 129.952 16.1923Z" fill="white"/>
<path fill-rule="evenodd" clip-rule="evenodd" d="M137.815 4.82442V12.1756C137.815 13.7432 138.249 14.9411 139.116 15.7693C139.958 16.5745 141.156 16.9771 142.708 16.9771H153.976C155.516 16.9771 156.711 16.562 157.56 15.7319C158.417 14.894 158.846 13.7086 158.846 12.1756V4.82442C158.846 3.25565 158.417 2.05807 157.558 1.23168C156.721 0.42582 155.527 0.0228882 153.976 0.0228882H142.708C139.446 0.0228882 137.815 1.6234 137.815 4.82442ZM142.708 16.2137C139.955 16.2137 138.579 14.8677 138.579 12.1756V4.82442C138.579 2.1323 139.955 0.786242 142.708 0.786242H153.976C156.714 0.786242 158.083 2.1323 158.083 4.82442V12.1756C158.083 14.8677 156.714 16.2137 153.976 16.2137H142.708ZM142.002 3.89255C141.745 4.09426 141.617 4.47358 141.617 5.03053V11.9466C141.617 12.5032 141.745 12.8824 142.002 13.0842C142.276 13.3436 142.702 13.4733 143.281 13.4733H153.403C154.012 13.4733 154.446 13.3444 154.703 13.0867C154.718 13.0718 154.732 13.0558 154.744 13.0386C154.944 12.7585 155.044 12.3945 155.044 11.9466V5.03053C155.044 4.02798 154.497 3.52671 153.403 3.52671H143.281C142.688 3.52671 142.262 3.64866 142.002 3.89255ZM142.38 11.9466V5.03053C142.38 4.71655 142.411 4.53763 142.472 4.49377C142.489 4.48155 142.505 4.46799 142.52 4.45309C142.629 4.34441 142.883 4.29007 143.281 4.29007H153.403C153.778 4.29007 154.019 4.33389 154.126 4.42153C154.229 4.50574 154.281 4.70874 154.281 5.03052V11.9466C154.281 12.2133 154.235 12.4198 154.143 12.566C154.024 12.6619 153.778 12.7099 153.403 12.7099H143.281C142.898 12.7099 142.644 12.6479 142.52 12.524C142.505 12.5091 142.489 12.4955 142.472 12.4833C142.411 12.4395 142.38 12.2605 142.38 11.9466Z" fill="white"/>
<path fill-rule="evenodd" clip-rule="evenodd" d="M160.831 1.36641V12.084C160.831 13.6207 161.247 14.8051 162.079 15.6373C162.911 16.4694 164.095 16.8855 165.632 16.8855H179.67C180.035 16.8855 180.339 16.7643 180.581 16.5218C180.587 16.5165 180.592 16.5111 180.597 16.5055C180.829 16.2443 180.945 15.946 180.945 15.6107V13.8931C180.945 13.5244 180.825 13.2197 180.584 12.9792C180.344 12.7386 180.039 12.6183 179.67 12.6183H166.182C165.887 12.6183 165.666 12.5725 165.518 12.4809C165.452 12.3904 165.418 12.1894 165.418 11.8779V1.36642C165.418 1.00544 165.3 0.704372 165.062 0.463198C164.838 0.215474 164.532 0.0916138 164.144 0.0916138H162.128C161.778 0.0916138 161.472 0.207719 161.211 0.439932C161.193 0.455454 161.177 0.472433 161.163 0.490868C160.941 0.775715 160.831 1.06755 160.831 1.36641ZM165.632 16.1221C162.94 16.1221 161.594 14.7761 161.594 12.084V1.36641C161.594 1.25047 161.644 1.12462 161.743 0.988853C161.854 0.89959 161.983 0.854959 162.128 0.854959H164.144C164.308 0.854959 164.426 0.896226 164.5 0.978757C164.504 0.984353 164.51 0.989796 164.515 0.995074C164.608 1.08848 164.655 1.21226 164.655 1.36641V11.8779C164.655 12.426 164.769 12.8137 164.996 13.0409C165.011 13.0558 165.027 13.0693 165.044 13.0816C165.324 13.2816 165.703 13.3817 166.182 13.3817H179.67C180.011 13.3817 180.182 13.5522 180.182 13.8931V15.6107C180.182 15.7489 180.133 15.8752 180.034 15.9895C179.942 16.0779 179.82 16.1221 179.67 16.1221H165.632Z" fill="white"/>
<path fill-rule="evenodd" clip-rule="evenodd" d="M184.846 12.5725H183.037C182.668 12.5725 182.367 12.689 182.134 12.9219C181.901 13.1548 181.785 13.4557 181.785 13.8244V15.6336C181.785 16.0024 181.906 16.2986 182.148 16.5221C182.372 16.7644 182.668 16.8855 183.037 16.8855H184.846C185.215 16.8855 185.511 16.7644 185.734 16.5221C185.977 16.2986 186.098 16.0024 186.098 15.6336V13.8244C186.098 13.4556 185.981 13.1548 185.748 12.9219C185.515 12.689 185.215 12.5725 184.846 12.5725ZM182.548 13.8244C182.548 13.4987 182.711 13.3359 183.037 13.3359H184.846C185.172 13.3359 185.334 13.4987 185.334 13.8244V15.6336C185.334 15.7823 185.293 15.8933 185.211 15.9666C185.199 15.9766 185.189 15.9872 185.179 15.9983C185.106 16.0809 184.995 16.1221 184.846 16.1221H183.037C182.888 16.1221 182.777 16.0809 182.704 15.9983C182.694 15.9872 182.683 15.9766 182.672 15.9666C182.589 15.8933 182.548 15.7823 182.548 15.6336V13.8244Z" fill="white"/>
<path fill-rule="evenodd" clip-rule="evenodd" d="M188.083 6.17557V9.58778C188.083 9.90331 188.24 10.0611 188.556 10.0611H204.128C204.557 10.0611 204.837 10.1286 204.969 10.2635C205.101 10.3989 205.166 10.6851 205.166 11.1221V11.8321C205.166 12.2364 205.1 12.496 204.967 12.6108C204.837 12.7227 204.558 12.7786 204.128 12.7786H188.556C188.24 12.7786 188.083 12.9364 188.083 13.2519V16.5267C188.083 16.8422 188.24 17 188.556 17H204.289C205.983 17 207.287 16.5714 208.2 15.7143C209.145 14.8272 209.617 13.5331 209.617 11.8321V11.1221C209.617 9.6111 209.161 8.46034 208.25 7.66982C208.825 6.98979 209.113 6.06422 209.113 4.89313C209.113 1.63104 207.444 0 204.105 0H188.556C188.24 0 188.083 0.157756 188.083 0.47328V3.58778C188.083 3.9033 188.24 4.06107 188.556 4.06107H203.922C204.317 4.06107 204.542 4.09939 204.596 4.17603C204.614 4.20121 204.635 4.22386 204.658 4.24399C204.738 4.31178 204.777 4.52815 204.777 4.89313C204.777 5.23391 204.744 5.45037 204.677 5.54254C204.508 5.64904 204.256 5.70229 203.922 5.70229H188.556C188.24 5.70229 188.083 5.86004 188.083 6.17557ZM188.846 9.29771H204.128C205.329 9.29771 205.93 9.90585 205.93 11.1221V11.8321C205.93 12.4695 205.775 12.9218 205.465 13.1888C205.192 13.4243 204.747 13.542 204.128 13.542H188.846V16.2366H204.289C207.332 16.2366 208.854 14.7684 208.854 11.8321V11.1221C208.854 9.69378 208.39 8.66127 207.462 8.02461C207.452 8.01753 207.442 8.00997 207.432 8.00194C207.423 7.99388 207.413 7.98539 207.405 7.97644C207.396 7.96749 207.388 7.95813 207.38 7.94837C207.372 7.93861 207.365 7.92849 207.358 7.91801C207.351 7.90754 207.345 7.89674 207.339 7.88564C207.333 7.87455 207.328 7.8632 207.324 7.8516C207.319 7.83998 207.315 7.82818 207.311 7.81618C207.308 7.80417 207.305 7.79201 207.303 7.77972C207.3 7.76743 207.299 7.75506 207.298 7.7426C207.297 7.73015 207.296 7.71767 207.296 7.70518C207.296 7.69268 207.297 7.68022 207.299 7.6678C207.3 7.65537 207.302 7.64304 207.304 7.63081C207.307 7.61859 207.31 7.60651 207.314 7.59459C207.318 7.58268 207.322 7.57097 207.327 7.55949C207.332 7.548 207.338 7.53678 207.344 7.52583C207.35 7.51487 207.356 7.50424 207.363 7.49394C207.381 7.46816 207.401 7.44491 207.425 7.42419C208.041 6.87809 208.35 6.0344 208.35 4.89312C208.35 2.13994 206.935 0.763346 204.105 0.763346H188.846V3.2977H203.922C204.55 3.2977 204.972 3.43014 205.189 3.69502C205.423 3.92146 205.541 4.32083 205.541 4.89312C205.541 5.47181 205.427 5.87475 205.2 6.10193C205.185 6.11683 205.169 6.13039 205.152 6.14262C204.85 6.35796 204.44 6.46564 203.922 6.46564H188.846V9.29771Z" fill="white"/>
<path d="M212.304 0.857361C211.777 0.857361 211.411 1.22377 211.411 1.75049V4.26958C211.411 4.33828 211.434 4.36118 211.502 4.36118H225.449C226.021 4.36118 226.273 4.45278 226.388 4.61309C226.502 4.72759 226.617 4.9566 226.617 5.50622V8.20851C226.617 9.12454 226.365 9.35355 225.449 9.35355H217.159C217.067 9.35355 217.021 9.44516 217.09 9.51386C218.441 10.7963 222.06 14.3001 224.693 16.865C224.693 16.8879 224.716 16.8879 224.762 16.8879H229.96C230.029 16.8879 230.098 16.7963 230.029 16.7276C229.228 15.9261 227.052 13.865 226.09 12.949C226.021 12.8803 226.067 12.7887 226.159 12.7887C229.021 12.491 230.441 11.4375 230.441 8.46043V5.27722C230.441 2.41462 228.884 0.857369 226.021 0.857369L212.304 0.857361Z" fill="white"/>
<path fill-rule="evenodd" clip-rule="evenodd" d="M16.6587 8.4897V8.50843C16.6564 8.77298 16.5543 9.03684 16.3525 9.23878C16.1476 9.44385 15.8776 9.54663 15.6074 9.54663C15.3402 9.54663 15.0728 9.44568 14.8697 9.24244C14.5677 8.94042 14.4869 8.50213 14.6302 8.12914C14.6807 7.99287 14.7604 7.86543 14.8697 7.75581C15.2779 7.34767 15.9364 7.34401 16.3447 7.75215L16.3525 7.75948C16.5543 7.96134 16.6564 8.22514 16.6587 8.4897ZM8.56972 2.50148C8.30235 2.50148 8.03448 2.39952 7.8304 2.19529C7.42176 1.78699 7.4181 1.12114 7.82674 0.712669C8.23504 0.304366 8.89357 0.300699 9.30171 0.709002L9.30904 0.716336C9.71768 1.12481 9.71768 1.78699 9.30904 2.19529C9.10514 2.39936 8.83709 2.50148 8.56972 2.50148ZM5.25796 2.29241C5.0439 2.29241 4.82966 2.21062 4.66641 2.04736C4.33973 1.72069 4.33606 1.18728 4.66274 0.860427C4.98926 0.534084 5.5155 0.530247 5.84218 0.856761L5.84951 0.864086C6.17635 1.19076 6.17635 1.72052 5.84951 2.04736C5.68625 2.21062 5.47219 2.29241 5.25796 2.29241ZM2.68718 2.08301C2.52659 2.08301 2.366 2.02188 2.24356 1.89927C1.99835 1.65439 1.99468 1.25341 2.2399 1.00853C2.48445 0.763647 2.87826 0.75948 3.12348 1.00486L3.13081 1.01219C3.37586 1.25707 3.37586 1.65438 3.13081 1.89943C3.00837 2.02187 2.84777 2.08301 2.68718 2.08301ZM0.425592 1.87411C0.318475 1.87411 0.211527 1.8333 0.129896 1.75167C-0.0335256 1.58825 -0.0371926 1.31971 0.126229 1.15645C0.289151 0.993198 0.550691 0.989196 0.714117 1.15279L0.721284 1.15995C0.88454 1.32304 0.88454 1.58808 0.721284 1.75151C0.639658 1.83313 0.532544 1.87411 0.425592 1.87411ZM10.9201 4.85203C10.6529 4.85203 10.385 4.75008 10.1808 4.54585L10.1651 4.53035C9.75682 4.12188 9.75682 3.45969 10.1651 3.05139C10.5734 2.64309 11.2359 2.64309 11.6439 3.05139L11.6597 3.06689C12.0682 3.47536 12.0682 4.13738 11.6597 4.54585C11.4558 4.74992 11.1878 4.85203 10.9201 4.85203ZM7.60834 4.64296C7.39428 4.64296 7.18004 4.56133 7.01679 4.39791L7.0013 4.38241C6.67445 4.05557 6.67445 3.52599 7.0013 3.19914C7.32764 2.87246 7.85789 2.87246 8.18439 3.19914L8.19989 3.21464C8.5264 3.54131 8.5264 4.07106 8.19989 4.39791C8.0368 4.56116 7.82258 4.64296 7.60834 4.64296ZM5.0374 4.43373C4.87681 4.43373 4.71638 4.37259 4.59378 4.24999L4.57829 4.23432C4.33323 3.98944 4.33323 3.59213 4.57829 3.34708C4.82334 3.10203 5.22048 3.10203 5.46553 3.34708L5.48102 3.36275C5.72607 3.60763 5.72607 4.00494 5.48102 4.24999C5.35858 4.37259 5.19799 4.43373 5.0374 4.43373ZM2.77614 4.22466C2.66902 4.22466 2.56208 4.18385 2.48045 4.10206L2.46479 4.08639C2.30136 3.92313 2.30136 3.65827 2.46479 3.49484C2.62821 3.33142 2.89291 3.33142 3.05634 3.49484L3.072 3.5105C3.23542 3.67375 3.23542 3.93863 3.072 4.10206C2.99004 4.18385 2.88309 4.22466 2.77614 4.22466ZM13.2708 7.20275C13.0038 7.20275 12.7377 7.10163 12.5333 6.89873L12.5177 6.88306C12.108 6.47592 12.1059 5.8139 12.5132 5.4041C12.9195 4.99446 13.5822 4.9923 13.992 5.39944L14.0081 5.41493C14.4176 5.82207 14.4196 6.48409 14.0126 6.8939C13.8086 7.09963 13.5394 7.20275 13.2708 7.20275ZM9.95872 6.99367C9.74582 6.99367 9.53209 6.91255 9.36933 6.75046L9.35318 6.73463C9.02516 6.40895 9.0235 5.87954 9.34968 5.55153C9.67536 5.22385 10.2049 5.22185 10.5328 5.54786L10.5489 5.56336C10.8768 5.88904 10.8784 6.41862 10.5526 6.74646C10.3885 6.91105 10.1738 6.99367 9.95872 6.99367ZM7.38811 6.78427C7.22752 6.78427 7.06693 6.72297 6.94449 6.60036L6.92899 6.58487C6.68394 6.33981 6.68394 5.94267 6.92899 5.69762C7.17405 5.45257 7.57119 5.45257 7.81624 5.69762L7.83173 5.71312C8.07679 5.95817 8.07679 6.35532 7.83173 6.60036C7.70913 6.72297 7.54853 6.78427 7.38811 6.78427ZM5.12652 6.57505C5.0199 6.57505 4.91329 6.53473 4.83183 6.4536L4.81601 6.4381C4.65209 6.27518 4.65109 6.01048 4.81401 5.84655C4.9771 5.6828 5.24214 5.6818 5.40556 5.84456L5.42122 5.86022C5.58531 6.02314 5.58614 6.28784 5.42322 6.45177C5.3416 6.53406 5.23397 6.57505 5.12652 6.57505ZM12.2956 9.33739C12.0815 9.33739 11.8683 9.25693 11.7057 9.09434C11.464 8.85263 11.3995 8.50146 11.5143 8.20294C11.5545 8.09349 11.6186 7.99137 11.7057 7.90341C12.0327 7.57707 12.5588 7.5734 12.8852 7.89974L12.8927 7.90708C13.2193 8.23376 13.2193 8.76367 12.8927 9.09052C12.7282 9.25511 12.5115 9.33739 12.2956 9.33739ZM9.72467 9.12816C9.56442 9.12816 9.40465 9.06802 9.28305 8.94625C9.1013 8.7645 9.05215 8.50079 9.13895 8.27673C9.1696 8.19443 9.21725 8.11748 9.28305 8.05151C9.52777 7.80662 9.92174 7.80246 10.1668 8.04784L10.1741 8.05517C10.4193 8.30005 10.4193 8.6972 10.1741 8.94242C10.0505 9.06635 9.88759 9.12816 9.72467 9.12816ZM7.46325 8.91943C7.3563 8.91943 7.25002 8.87945 7.16938 8.79848C7.04728 8.67704 7.01445 8.50063 7.07326 8.35103C7.09308 8.29556 7.12507 8.24375 7.16938 8.19961C7.33247 8.03635 7.59402 8.03235 7.7571 8.19594L7.76443 8.20327C7.92769 8.36636 7.92769 8.63157 7.76443 8.79482C7.68197 8.87778 7.57253 8.91943 7.46325 8.91943ZM13.255 11.9027C12.9878 11.9027 12.7197 11.8009 12.5157 11.5967C12.1074 11.1882 12.1074 10.5258 12.5157 10.1175L12.531 10.1017C12.9391 9.69372 13.6018 9.69372 14.0098 10.1017C14.4183 10.51 14.4183 11.1725 14.0098 11.5812L13.9945 11.5967C13.7906 11.8006 13.523 11.9027 13.255 11.9027ZM9.94323 11.6936C9.7295 11.6936 9.51527 11.6121 9.35168 11.4489C9.02484 11.1217 9.02484 10.5916 9.35168 10.2655L9.36734 10.2498C9.69402 9.92345 10.2243 9.92345 10.5506 10.2498C10.8775 10.5766 10.8775 11.1066 10.5506 11.4332L10.5348 11.4492C10.3717 11.6121 10.1573 11.6936 9.94323 11.6936ZM7.37245 11.4845C7.21186 11.4845 7.05127 11.4232 6.92883 11.3006C6.68378 11.0556 6.68378 10.6584 6.92883 10.4137L6.94432 10.3977C7.18938 10.1527 7.58652 10.1527 7.83157 10.3977C8.07662 10.6428 8.07662 11.0399 7.83157 11.285L7.81607 11.3006C7.69363 11.4232 7.53304 11.4845 7.37245 11.4845ZM5.11103 11.2755C5.00391 11.2755 4.89696 11.2345 4.81533 11.1529C4.65191 10.9898 4.65191 10.7246 4.81533 10.5613L4.83083 10.5455C4.99408 10.3822 5.25895 10.3822 5.42238 10.5455C5.58564 10.7087 5.58564 10.974 5.42238 11.137L5.40689 11.1529C5.32509 11.2345 5.21797 11.2755 5.11103 11.2755ZM10.9048 14.2531C10.6372 14.2531 10.3692 14.1511 10.1655 13.9469C9.75682 13.5386 9.75682 12.8761 10.1655 12.4677L10.1811 12.4524C10.5891 12.0438 11.2519 12.0438 11.6599 12.4524C12.0682 12.8607 12.0682 13.5229 11.6599 13.9312L11.6443 13.9469C11.44 14.1511 11.172 14.2531 10.9048 14.2531ZM7.59302 14.044C7.37979 14.044 7.16655 13.963 7.0033 13.8013C6.67562 13.4751 6.67379 12.9453 6.99947 12.6178L7.01496 12.602C7.34081 12.2743 7.87039 12.2725 8.19823 12.5983C8.52591 12.924 8.52758 13.4538 8.20206 13.7818L8.18657 13.7974C8.02298 13.962 7.80808 14.044 7.59302 14.044ZM5.02191 13.8349C4.86199 13.8349 4.70206 13.7743 4.57978 13.6523C4.3339 13.4081 4.33257 13.011 4.57695 12.7651L4.59245 12.7496C4.83667 12.5036 5.23414 12.5026 5.47969 12.7463C5.72557 12.9907 5.72674 13.3881 5.48252 13.6337L5.46703 13.6495C5.34459 13.7733 5.18316 13.8349 5.02191 13.8349ZM2.76048 13.6258C2.65337 13.6258 2.54658 13.5849 2.46479 13.5034C2.30136 13.3403 2.30136 13.0754 2.46479 12.9117L2.48045 12.896C2.64387 12.7329 2.90841 12.7329 3.072 12.896C3.23542 13.0593 3.23542 13.3245 3.072 13.4876L3.05634 13.5034C2.97438 13.5847 2.86743 13.6258 2.76048 13.6258ZM8.56222 16.5954C8.29501 16.5954 8.02698 16.4937 7.82291 16.2891C7.41427 15.8809 7.41427 15.2188 7.82291 14.8103C8.23121 14.4018 8.89656 14.398 9.30486 14.8066C9.71384 15.2153 9.7175 15.8738 9.30853 16.2818L9.3012 16.2891C9.09746 16.4932 8.82976 16.5954 8.56222 16.5954ZM5.25079 16.3864C5.03673 16.3864 4.8225 16.3049 4.65924 16.1413C4.3324 15.8145 4.3324 15.2847 4.65924 14.958C4.98576 14.6314 5.51933 14.6279 5.84601 14.9546C6.17269 15.2814 6.17652 15.8071 5.84968 16.134L5.84218 16.1413C5.67892 16.3049 5.46469 16.3864 5.25079 16.3864ZM2.67986 16.177C2.51926 16.177 2.35867 16.116 2.23623 15.9931C1.99102 15.7478 1.99102 15.351 2.23623 15.106C2.48095 14.8608 2.88226 14.8573 3.12714 15.1023C3.3722 15.3477 3.37586 15.7409 3.13081 15.9861L3.12348 15.9936C3.00087 16.116 2.84028 16.177 2.67986 16.177ZM0.418258 15.9679C0.311141 15.9679 0.204197 15.9273 0.122566 15.8456C-0.0408553 15.6825 -0.0408553 15.4177 0.122566 15.2541C0.285653 15.091 0.554528 15.087 0.717784 15.2504C0.881041 15.4138 0.884708 15.675 0.721451 15.8383L0.714117 15.8456C0.632157 15.9273 0.525205 15.9679 0.418258 15.9679Z" fill="white"/>
</svg>
